<svg version="1.1" viewBox="0.0 0.0 649.0 420.0" fill="none" stroke="none" stroke-linecap="square" stroke-miterlimit="10" width="649" height="420" xmlns:xlink="http://www.w3.org/1999/xlink" xmlns="http://www.w3.org/2000/svg"><path fill="#ffffff" d="M0 0L649.0 0L649.0 420.0L0 420.0L0 0Z" fill-rule="nonzero"/><path stroke="#cccccc" stroke-width="1.0" stroke-linecap="butt" d="M98.5 336.5L590.5 336.5" fill-rule="nonzero"/><path stroke="#cccccc" stroke-width="1.0" stroke-linecap="butt" d="M98.5 272.5L590.5 272.5" fill-rule="nonzero"/><path stroke="#cccccc" stroke-width="1.0" stroke-linecap="butt" d="M98.5 209.5L590.5 209.5" fill-rule="nonzero"/><path stroke="#cccccc" stroke-width="1.0" stroke-linecap="butt" d="M98.5 146.5L590.5 146.5" fill-rule="nonzero"/><path stroke="#cccccc" stroke-width="1.0" stroke-linecap="butt" d="M98.5 83.5L590.5 83.5" fill-rule="nonzero"/><clipPath id="id_0"><path d="M98.5 83.5L590.5 83.5L590.5 336.0L98.5 336.0L98.5 83.5Z" clip-rule="nonzero"/></clipPath><path stroke="#4285f4" stroke-width="3.0" stroke-linecap="butt" clip-path="url(#id_0)" d="M123.1 248.07384L172.3 237.09265L221.5 232.05762L270.7 227.83778L319.9 225.15242L369.1 224.8647L418.3 222.1314L467.5 219.54195L516.7 220.26125L565.9 220.21329" fill-rule="nonzero"/><path stroke="#ea4335" stroke-width="3.0" stroke-linecap="butt" clip-path="url(#id_0)" d="M123.1 185.78322L172.3 181.27565L221.5 180.55637L270.7 182.18675L319.9 180.26865L369.1 178.35054L418.3 179.26164L467.5 179.5973L516.7 181.08385L565.9 183.09785" fill-rule="nonzero"/><path stroke="#fbbc04" stroke-width="3.0" stroke-linecap="butt" clip-path="url(#id_0)" d="M123.1 274.97534L172.3 277.46887L221.5 281.7846L270.7 283.0314L319.9 281.35306L369.1 277.42093L418.3 282.1203L467.5 284.66177L516.7 280.25012L565.9 285.42902" fill-rule="nonzero"/><path stroke="#34a853" stroke-width="3.0" stroke-linecap="butt" clip-path="url(#id_0)" d="M123.1 89.59L172.3 88.58299L221.5 88.678894L270.7 88.48708L319.9 87.14441L369.1 87.19236L418.3 86.76079L467.5 87.76779L516.7 86.52103L565.9 87.09646" fill-rule="nonzero"/><path fill="#000000" fill-opacity="0.0" clip-path="url(#id_0)" d="M126.1 248.07384C126.1 249.7307 124.75685 251.07384 123.1 251.07384C121.443146 251.07384 120.1 249.7307 120.1 248.07384C120.1 246.41698 121.443146 245.07384 123.1 245.07384C124.75685 245.07384 126.1 246.41698 126.1 248.07384Z" fill-rule="nonzero"/><path fill="#000000" fill-opacity="0.0" clip-path="url(#id_0)" d="M175.3 237.09265C175.3 238.74951 173.95685 240.09265 172.3 240.09265C170.64314 240.09265 169.3 238.74951 169.3 237.09265C169.3 235.4358 170.64314 234.09265 172.3 234.09265C173.95685 234.09265 175.3 235.4358 175.3 237.09265Z" fill-rule="nonzero"/><path fill="#000000" fill-opacity="0.0" clip-path="url(#id_0)" d="M224.5 232.05762C224.5 233.71448 223.15686 235.05762 221.5 235.05762C219.84314 235.05762 218.5 233.71448 218.5 232.05762C218.5 230.40077 219.84314 229.05762 221.5 229.05762C223.15686 229.05762 224.5 230.40077 224.5 232.05762Z" fill-rule="nonzero"/><path fill="#000000" fill-opacity="0.0" clip-path="url(#id_0)" d="M273.7 227.83778C273.7 229.49463 272.35684 230.83778 270.7 230.83778C269.04315 230.83778 267.7 229.49463 267.7 227.83778C267.7 226.18092 269.04315 224.83778 270.7 224.83778C272.35684 224.83778 273.7 226.18092 273.7 227.83778Z" fill-rule="nonzero"/><path fill="#000000" fill-opacity="0.0" clip-path="url(#id_0)" d="M322.9 225.15242C322.9 226.80928 321.55685 228.15242 319.9 228.15242C318.24313 228.15242 316.9 226.80928 316.9 225.15242C316.9 223.49557 318.24313 222.15242 319.9 222.15242C321.55685 222.15242 322.9 223.49557 322.9 225.15242Z" fill-rule="nonzero"/><path fill="#000000" fill-opacity="0.0" clip-path="url(#id_0)" d="M372.1 224.8647C372.1 226.52156 370.75687 227.8647 369.1 227.8647C367.44315 227.8647 366.1 226.52156 366.1 224.8647C366.1 223.20786 367.44315 221.8647 369.1 221.8647C370.75687 221.8647 372.1 223.20786 372.1 224.8647Z" fill-rule="nonzero"/><path fill="#000000" fill-opacity="0.0" clip-path="url(#id_0)" d="M421.3 222.1314C421.3 223.78825 419.95685 225.1314 418.3 225.1314C416.64316 225.1314 415.3 223.78825 415.3 222.1314C415.3 220.47455 416.64316 219.1314 418.3 219.1314C419.95685 219.1314 421.3 220.47455 421.3 222.1314Z" fill-rule="nonzero"/><path fill="#000000" fill-opacity="0.0" clip-path="url(#id_0)" d="M470.5 219.54195C470.5 221.1988 469.15686 222.54195 467.5 222.54195C465.84314 222.54195 464.5 221.1988 464.5 219.54195C464.5 217.8851 465.84314 216.54195 467.5 216.54195C469.15686 216.54195 470.5 217.8851 470.5 219.54195Z" fill-rule="nonzero"/><path fill="#000000" fill-opacity="0.0" clip-path="url(#id_0)" d="M519.7 220.26125C519.7 221.91809 518.3569 223.26125 516.7 223.26125C515.04315 223.26125 513.7 221.91809 513.7 220.26125C513.7 218.60439 515.04315 217.26125 516.7 217.26125C518.3569 217.26125 519.7 218.60439 519.7 220.26125Z" fill-rule="nonzero"/><path fill="#000000" fill-opacity="0.0" clip-path="url(#id_0)" d="M568.9 220.21329C568.9 221.87015 567.5569 223.21329 565.9 223.21329C564.24316 223.21329 562.9 221.87015 562.9 220.21329C562.9 218.55644 564.24316 217.21329 565.9 217.21329C567.5569 217.21329 568.9 218.55644 568.9 220.21329Z" fill-rule="nonzero"/><path fill="#000000" fill-opacity="0.0" clip-path="url(#id_0)" d="M126.1 185.78322C126.1 187.44006 124.75685 188.78322 123.1 188.78322C121.443146 188.78322 120.1 187.44006 120.1 185.78322C120.1 184.12636 121.443146 182.78322 123.1 182.78322C124.75685 182.78322 126.1 184.12636 126.1 185.78322Z" fill-rule="nonzero"/><path fill="#000000" fill-opacity="0.0" clip-path="url(#id_0)" d="M175.3 181.27565C175.3 182.93251 173.95685 184.27565 172.3 184.27565C170.64314 184.27565 169.3 182.93251 169.3 181.27565C169.3 179.6188 170.64314 178.27565 172.3 178.27565C173.95685 178.27565 175.3 179.6188 175.3 181.27565Z" fill-rule="nonzero"/><path fill="#000000" fill-opacity="0.0" clip-path="url(#id_0)" d="M224.5 180.55637C224.5 182.21323 223.15686 183.55637 221.5 183.55637C219.84314 183.55637 218.5 182.21323 218.5 180.55637C218.5 178.8995 219.84314 177.55637 221.5 177.55637C223.15686 177.55637 224.5 178.8995 224.5 180.55637Z" fill-rule="nonzero"/><path fill="#000000" fill-opacity="0.0" clip-path="url(#id_0)" d="M273.7 182.18675C273.7 183.84361 272.35684 185.18675 270.7 185.18675C269.04315 185.18675 267.7 183.84361 267.7 182.18675C267.7 180.5299 269.04315 179.18675 270.7 179.18675C272.35684 179.18675 273.7 180.5299 273.7 182.18675Z" fill-rule="nonzero"/><path fill="#000000" fill-opacity="0.0" clip-path="url(#id_0)" d="M322.9 180.26865C322.9 181.9255 321.55685 183.26865 319.9 183.26865C318.24313 183.26865 316.9 181.9255 316.9 180.26865C316.9 178.6118 318.24313 177.26865 319.9 177.26865C321.55685 177.26865 322.9 178.6118 322.9 180.26865Z" fill-rule="nonzero"/><path fill="#000000" fill-opacity="0.0" clip-path="url(#id_0)" d="M372.1 178.35054C372.1 180.0074 370.75687 181.35054 369.1 181.35054C367.44315 181.35054 366.1 180.0074 366.1 178.35054C366.1 176.69368 367.44315 175.35054 369.1 175.35054C370.75687 175.35054 372.1 176.69368 372.1 178.35054Z" fill-rule="nonzero"/><path fill="#000000" fill-opacity="0.0" clip-path="url(#id_0)" d="M421.3 179.26164C421.3 180.9185 419.95685 182.26164 418.3 182.26164C416.64316 182.26164 415.3 180.9185 415.3 179.26164C415.3 177.60478 416.64316 176.26164 418.3 176.26164C419.95685 176.26164 421.3 177.60478 421.3 179.26164Z" fill-rule="nonzero"/><path fill="#000000" fill-opacity="0.0" clip-path="url(#id_0)" d="M470.5 179.5973C470.5 181.25417 469.15686 182.5973 467.5 182.5973C465.84314 182.5973 464.5 181.25417 464.5 179.5973C464.5 177.94046 465.84314 176.5973 467.5 176.5973C469.15686 176.5973 470.5 177.94046 470.5 179.5973Z" fill-rule="nonzero"/><path fill="#000000" fill-opacity="0.0" clip-path="url(#id_0)" d="M519.7 181.08385C519.7 182.7407 518.3569 184.08385 516.7 184.08385C515.04315 184.08385 513.7 182.7407 513.7 181.08385C513.7 179.42699 515.04315 178.08385 516.7 178.08385C518.3569 178.08385 519.7 179.42699 519.7 181.08385Z" fill-rule="nonzero"/><path fill="#000000" fill-opacity="0.0" clip-path="url(#id_0)" d="M568.9 183.09785C568.9 184.75471 567.5569 186.09785 565.9 186.09785C564.24316 186.09785 562.9 184.75471 562.9 183.09785C562.9 181.44101 564.24316 180.09785 565.9 180.09785C567.5569 180.09785 568.9 181.44101 568.9 183.09785Z" fill-rule="nonzero"/><path fill="#000000" fill-opacity="0.0" clip-path="url(#id_0)" d="M126.1 274.97534C126.1 276.63217 124.75685 277.97534 123.1 277.97534C121.443146 277.97534 120.1 276.63217 120.1 274.97534C120.1 273.31848 121.443146 271.97534 123.1 271.97534C124.75685 271.97534 126.1 273.31848 126.1 274.97534Z" fill-rule="nonzero"/><path fill="#000000" fill-opacity="0.0" clip-path="url(#id_0)" d="M175.3 277.46887C175.3 279.12573 173.95685 280.46887 172.3 280.46887C170.64314 280.46887 169.3 279.12573 169.3 277.46887C169.3 275.812 170.64314 274.46887 172.3 274.46887C173.95685 274.46887 175.3 275.812 175.3 277.46887Z" fill-rule="nonzero"/><path fill="#000000" fill-opacity="0.0" clip-path="url(#id_0)" d="M224.5 281.7846C224.5 283.44147 223.15686 284.7846 221.5 284.7846C219.84314 284.7846 218.5 283.44147 218.5 281.7846C218.5 280.12778 219.84314 278.7846 221.5 278.7846C223.15686 278.7846 224.5 280.12778 224.5 281.7846Z" fill-rule="nonzero"/><path fill="#000000" fill-opacity="0.0" clip-path="url(#id_0)" d="M273.7 283.0314C273.7 284.68823 272.35684 286.0314 270.7 286.0314C269.04315 286.0314 267.7 284.68823 267.7 283.0314C267.7 281.37454 269.04315 280.0314 270.7 280.0314C272.35684 280.0314 273.7 281.37454 273.7 283.0314Z" fill-rule="nonzero"/><path fill="#000000" fill-opacity="0.0" clip-path="url(#id_0)" d="M322.9 281.35306C322.9 283.0099 321.55685 284.35306 319.9 284.35306C318.24313 284.35306 316.9 283.0099 316.9 281.35306C316.9 279.6962 318.24313 278.35306 319.9 278.35306C321.55685 278.35306 322.9 279.6962 322.9 281.35306Z" fill-rule="nonzero"/><path fill="#000000" fill-opacity="0.0" clip-path="url(#id_0)" d="M372.1 277.42093C372.1 279.0778 370.75687 280.42093 369.1 280.42093C367.44315 280.42093 366.1 279.0778 366.1 277.42093C366.1 275.76407 367.44315 274.42093 369.1 274.42093C370.75687 274.42093 372.1 275.76407 372.1 277.42093Z" fill-rule="nonzero"/><path fill="#000000" fill-opacity="0.0" clip-path="url(#id_0)" d="M421.3 282.1203C421.3 283.77713 419.95685 285.1203 418.3 285.1203C416.64316 285.1203 415.3 283.77713 415.3 282.1203C415.3 280.46344 416.64316 279.1203 418.3 279.1203C419.95685 279.1203 421.3 280.46344 421.3 282.1203Z" fill-rule="nonzero"/><path fill="#000000" fill-opacity="0.0" clip-path="url(#id_0)" d="M470.5 284.66177C470.5 286.31863 469.15686 287.66177 467.5 287.66177C465.84314 287.66177 464.5 286.31863 464.5 284.66177C464.5 283.00494 465.84314 281.66177 467.5 281.66177C469.15686 281.66177 470.5 283.00494 470.5 284.66177Z" fill-rule="nonzero"/><path fill="#000000" fill-opacity="0.0" clip-path="url(#id_0)" d="M519.7 280.25012C519.7 281.90698 518.3569 283.25012 516.7 283.25012C515.04315 283.25012 513.7 281.90698 513.7 280.25012C513.7 278.5933 515.04315 277.25012 516.7 277.25012C518.3569 277.25012 519.7 278.5933 519.7 280.25012Z" fill-rule="nonzero"/><path fill="#000000" fill-opacity="0.0" clip-path="url(#id_0)" d="M568.9 285.42902C568.9 287.08588 567.5569 288.42902 565.9 288.42902C564.24316 288.42902 562.9 287.08588 562.9 285.42902C562.9 283.7722 564.24316 282.42902 565.9 282.42902C567.5569 282.42902 568.9 283.7722 568.9 285.42902Z" fill-rule="nonzero"/><path fill="#000000" fill-opacity="0.0" clip-path="url(#id_0)" d="M126.1 89.59C126.1 91.24686 124.75685 92.59 123.1 92.59C121.443146 92.59 120.1 91.24686 120.1 89.59C120.1 87.93314 121.443146 86.59 123.1 86.59C124.75685 86.59 126.1 87.93314 126.1 89.59Z" fill-rule="nonzero"/><path fill="#000000" fill-opacity="0.0" clip-path="url(#id_0)" d="M175.3 88.58299C175.3 90.239845 173.95685 91.58299 172.3 91.58299C170.64314 91.58299 169.3 90.239845 169.3 88.58299C169.3 86.92614 170.64314 85.58299 172.3 85.58299C173.95685 85.58299 175.3 86.92614 175.3 88.58299Z" fill-rule="nonzero"/><path fill="#000000" fill-opacity="0.0" clip-path="url(#id_0)" d="M224.5 88.678894C224.5 90.335754 223.15686 91.678894 221.5 91.678894C219.84314 91.678894 218.5 90.335754 218.5 88.678894C218.5 87.02204 219.84314 85.678894 221.5 85.678894C223.15686 85.678894 224.5 87.02204 224.5 88.678894Z" fill-rule="nonzero"/><path fill="#000000" fill-opacity="0.0" clip-path="url(#id_0)" d="M273.7 88.48708C273.7 90.14394 272.35684 91.48708 270.7 91.48708C269.04315 91.48708 267.7 90.14394 267.7 88.48708C267.7 86.83023 269.04315 85.48708 270.7 85.48708C272.35684 85.48708 273.7 86.83023 273.7 88.48708Z" fill-rule="nonzero"/><path fill="#000000" fill-opacity="0.0" clip-path="url(#id_0)" d="M322.9 87.14441C322.9 88.80126 321.55685 90.14441 319.9 90.14441C318.24313 90.14441 316.9 88.80126 316.9 87.14441C316.9 85.48756 318.24313 84.14441 319.9 84.14441C321.55685 84.14441 322.9 85.48756 322.9 87.14441Z" fill-rule="nonzero"/><path fill="#000000" fill-opacity="0.0" clip-path="url(#id_0)" d="M372.1 87.19236C372.1 88.84921 370.75687 90.19236 369.1 90.19236C367.44315 90.19236 366.1 88.84921 366.1 87.19236C366.1 85.53551 367.44315 84.19236 369.1 84.19236C370.75687 84.19236 372.1 85.53551 372.1 87.19236Z" fill-rule="nonzero"/><path fill="#000000" fill-opacity="0.0" clip-path="url(#id_0)" d="M421.3 86.76079C421.3 88.41764 419.95685 89.76079 418.3 89.76079C416.64316 89.76079 415.3 88.41764 415.3 86.76079C415.3 85.103935 416.64316 83.76079 418.3 83.76079C419.95685 83.76079 421.3 85.103935 421.3 86.76079Z" fill-rule="nonzero"/><path fill="#000000" fill-opacity="0.0" clip-path="url(#id_0)" d="M470.5 87.76779C470.5 89.42465 469.15686 90.76779 467.5 90.76779C465.84314 90.76779 464.5 89.42465 464.5 87.76779C464.5 86.11094 465.84314 84.76779 467.5 84.76779C469.15686 84.76779 470.5 86.11094 470.5 87.76779Z" fill-rule="nonzero"/><path fill="#000000" fill-opacity="0.0" clip-path="url(#id_0)" d="M519.7 86.52103C519.7 88.17788 518.3569 89.52103 516.7 89.52103C515.04315 89.52103 513.7 88.17788 513.7 86.52103C513.7 84.86417 515.04315 83.52103 516.7 83.52103C518.3569 83.52103 519.7 84.86417 519.7 86.52103Z" fill-rule="nonzero"/><path fill="#000000" fill-opacity="0.0" clip-path="url(#id_0)" d="M568.9 87.09646C568.9 88.75331 567.5569 90.09646 565.9 90.09646C564.24316 90.09646 562.9 88.75331 562.9 87.09646C562.9 85.439606 564.24316 84.09646 565.9 84.09646C567.5569 84.09646 568.9 85.439606 568.9 87.09646Z" fill-rule="nonzero"/><path fill="#000000" d="M235.10938 379.1417L235.10938 383.00107Q235.10938 384.25107 235.375 384.54794Q235.75 384.98544 236.5 384.98544L237.0 384.98544L237.0 385.34482L231.32812 385.34482L231.32812 384.98544L231.82812 384.98544Q232.67188 384.98544 233.03125 384.43857Q233.23438 384.12607 233.23438 383.00107L233.23438 374.43857Q233.23438 373.18857 232.96875 372.8917Q232.57812 372.46982 231.82812 372.46982L231.32812 372.46982L231.32812 372.09482L236.1875 372.09482Q237.96875 372.09482 238.98438 372.46982Q240.01562 372.8292 240.71875 373.7042Q241.42188 374.5792 241.42188 375.7667Q241.42188 377.3917 240.34375 378.40732Q239.28125 379.42294 237.32812 379.42294Q236.84375 379.42294 236.28125 379.36044Q235.73438 379.28232 235.10938 379.1417ZM235.10938 378.5792Q235.625 378.68857 236.01562 378.73544Q236.42188 378.78232 236.70312 378.78232Q237.71875 378.78232 238.45312 378.00107Q239.1875 377.2042 239.1875 375.9542Q239.1875 375.09482 238.82812 374.36044Q238.48438 373.62607 237.84375 373.2667Q237.20312 372.8917 236.375 372.8917Q235.89062 372.8917 235.10938 373.0792L235.10938 378.5792ZM244.125 379.7667Q244.125 381.7667 245.09375 382.8917Q246.07812 384.03232 247.39062 384.03232Q248.26562 384.03232 248.90625 383.54794Q249.5625 383.06357 250.01562 381.8917L250.3125 382.0792Q250.10938 383.42294 249.125 384.53232Q248.14062 385.62607 246.65625 385.62607Q245.03125 385.62607 243.89062 384.37607Q242.75 383.11044 242.75 380.98544Q242.75 378.68857 243.92188 377.40732Q245.09375 376.12607 246.875 376.12607Q248.375 376.12607 249.34375 377.12607Q250.3125 378.11044 250.3125 379.7667L244.125 379.7667ZM244.125 379.2042L248.26562 379.2042Q248.21875 378.34482 248.0625 377.98544Q247.82812 377.43857 247.34375 377.12607Q246.85938 376.81357 246.32812 376.81357Q245.51562 376.81357 244.875 377.4542Q244.23438 378.0792 244.125 379.2042ZM254.25 376.1417L254.25 378.1417Q255.35938 376.1417 256.54688 376.1417Q257.07812 376.1417 257.42188 376.46982Q257.78125 376.78232 257.78125 377.21982Q257.78125 377.59482 257.53125 377.86044Q257.28125 378.12607 256.92188 378.12607Q256.59375 378.12607 256.15625 377.79794Q255.73438 377.4542 255.53125 377.4542Q255.35938 377.4542 255.15625 377.6417Q254.71875 378.04794 254.25 378.96982L254.25 383.25107Q254.25 384.00107 254.42188 384.37607Q254.5625 384.6417 254.875 384.81357Q255.20312 384.98544 255.8125 384.98544L255.8125 385.34482L251.21875 385.34482L251.21875 384.98544Q251.90625 384.98544 252.23438 384.78232Q252.48438 384.62607 252.57812 384.28232Q252.625 384.11044 252.625 383.3292L252.625 379.86044Q252.625 378.29794 252.5625 378.00107Q252.5 377.7042 252.32812 377.5792Q252.15625 377.43857 251.90625 377.43857Q251.60938 377.43857 251.21875 377.5792L251.125 377.23544L253.82812 376.1417L254.25 376.1417ZM266.21875 381.93857Q265.85938 383.71982 264.79688 384.67294Q263.75 385.62607 262.46875 385.62607Q260.95312 385.62607 259.8125 384.34482Q258.6875 383.06357 258.6875 380.87607Q258.6875 378.7667 259.9375 377.4542Q261.1875 376.1417 262.95312 376.1417Q264.26562 376.1417 265.10938 376.84482Q265.96875 377.53232 265.96875 378.28232Q265.96875 378.65732 265.71875 378.8917Q265.48438 379.11044 265.0625 379.11044Q264.48438 379.11044 264.1875 378.73544Q264.03125 378.53232 263.96875 377.96982Q263.92188 377.3917 263.57812 377.0792Q263.23438 376.78232 262.625 376.78232Q261.65625 376.78232 261.0625 377.5167Q260.26562 378.46982 260.26562 380.04794Q260.26562 381.6417 261.04688 382.87607Q261.84375 384.09482 263.17188 384.09482Q264.14062 384.09482 264.89062 383.43857Q265.4375 382.98544 265.9375 381.81357L266.21875 381.93857ZM269.125 379.7667Q269.125 381.7667 270.09375 382.8917Q271.07812 384.03232 272.39062 384.03232Q273.26562 384.03232 273.90625 383.54794Q274.5625 383.06357 275.01562 381.8917L275.3125 382.0792Q275.10938 383.42294 274.125 384.53232Q273.14062 385.62607 271.65625 385.62607Q270.03125 385.62607 268.89062 384.37607Q267.75 383.11044 267.75 380.98544Q267.75 378.68857 268.92188 377.40732Q270.09375 376.12607 271.875 376.12607Q273.375 376.12607 274.34375 377.12607Q275.3125 378.11044 275.3125 379.7667L269.125 379.7667ZM269.125 379.2042L273.26562 379.2042Q273.21875 378.34482 273.0625 377.98544Q272.82812 377.43857 272.34375 377.12607Q271.85938 376.81357 271.32812 376.81357Q270.51562 376.81357 269.875 377.4542Q269.23438 378.0792 269.125 379.2042ZM279.23438 378.03232Q280.8125 376.1417 282.23438 376.1417Q282.96875 376.1417 283.48438 376.50107Q284.01562 376.86044 284.32812 377.7042Q284.54688 378.29794 284.54688 379.50107L284.54688 383.3292Q284.54688 384.17294 284.6875 384.46982Q284.79688 384.71982 285.03125 384.86044Q285.26562 384.98544 285.90625 384.98544L285.90625 385.34482L281.48438 385.34482L281.48438 384.98544L281.67188 384.98544Q282.29688 384.98544 282.54688 384.79794Q282.79688 384.61044 282.89062 384.23544Q282.9375 384.09482 282.9375 383.3292L282.9375 379.65732Q282.9375 378.43857 282.60938 377.8917Q282.29688 377.3292 281.54688 377.3292Q280.39062 377.3292 279.23438 378.61044L279.23438 383.3292Q279.23438 384.23544 279.34375 384.43857Q279.48438 384.73544 279.71875 384.86044Q279.95312 384.98544 280.6875 384.98544L280.6875 385.34482L276.26562 385.34482L276.26562 384.98544L276.45312 384.98544Q277.14062 384.98544 277.375 384.6417Q277.625 384.29794 277.625 383.3292L277.625 380.00107Q277.625 378.3917 277.54688 378.04794Q277.46875 377.68857 277.3125 377.56357Q277.17188 377.43857 276.92188 377.43857Q276.64062 377.43857 276.26562 377.5792L276.125 377.23544L278.8125 376.1417L279.23438 376.1417L279.23438 378.03232ZM288.21875 373.4542L288.21875 376.3917L290.3125 376.3917L290.3125 377.0792L288.21875 377.0792L288.21875 382.87607Q288.21875 383.75107 288.46875 384.06357Q288.71875 384.36044 289.10938 384.36044Q289.4375 384.36044 289.73438 384.15732Q290.04688 383.9542 290.20312 383.56357L290.59375 383.56357Q290.25 384.5167 289.625 385.00107Q289.0 385.48544 288.32812 385.48544Q287.875 385.48544 287.4375 385.23544Q287.01562 384.98544 286.8125 384.53232Q286.60938 384.06357 286.60938 383.09482L286.60938 377.0792L285.20312 377.0792L285.20312 376.7667Q285.73438 376.54794 286.29688 376.03232Q286.85938 375.5167 287.29688 374.81357Q287.51562 374.43857 287.92188 373.4542L288.21875 373.4542ZM295.6875 384.04794Q294.3125 385.12607 293.96875 385.28232Q293.4375 385.53232 292.84375 385.53232Q291.92188 385.53232 291.3125 384.90732Q290.71875 384.2667 290.71875 383.21982Q290.71875 382.56357 291.0 382.09482Q291.40625 381.42294 292.39062 380.84482Q293.39062 380.25107 295.6875 379.42294L295.6875 379.06357Q295.6875 377.71982 295.26562 377.23544Q294.84375 376.73544 294.03125 376.73544Q293.42188 376.73544 293.0625 377.06357Q292.6875 377.3917 292.6875 377.8292L292.70312 378.3917Q292.70312 378.84482 292.46875 379.09482Q292.25 379.3292 291.875 379.3292Q291.51562 379.3292 291.28125 379.0792Q291.0625 378.81357 291.0625 378.37607Q291.0625 377.54794 291.92188 376.84482Q292.78125 376.1417 294.32812 376.1417Q295.51562 376.1417 296.28125 376.53232Q296.85938 376.84482 297.125 377.48544Q297.3125 377.90732 297.3125 379.2042L297.3125 382.23544Q297.3125 383.5167 297.35938 383.81357Q297.40625 384.09482 297.51562 384.18857Q297.625 384.28232 297.78125 384.28232Q297.9375 384.28232 298.04688 384.21982Q298.25 384.09482 298.84375 383.50107L298.84375 384.04794Q297.75 385.5167 296.75 385.5167Q296.26562 385.5167 295.98438 385.18857Q295.70312 384.86044 295.6875 384.04794ZM295.6875 383.42294L295.6875 380.0167Q294.21875 380.59482 293.79688 380.84482Q293.01562 381.2667 292.6875 381.73544Q292.35938 382.2042 292.35938 382.7667Q292.35938 383.46982 292.76562 383.93857Q293.1875 384.3917 293.73438 384.3917Q294.48438 384.3917 295.6875 383.42294ZM302.01562 382.0792Q301.20312 381.68857 300.75 380.96982Q300.3125 380.25107 300.3125 379.37607Q300.3125 378.04794 301.3125 377.09482Q302.32812 376.1417 303.89062 376.1417Q305.15625 376.1417 306.09375 376.7667L308.0 376.7667Q308.42188 376.7667 308.48438 376.79794Q308.54688 376.81357 308.57812 376.86044Q308.64062 376.9542 308.64062 377.17294Q308.64062 377.43857 308.59375 377.53232Q308.5625 377.5792 308.48438 377.61044Q308.42188 377.6417 308.0 377.6417L306.82812 377.6417Q307.375 378.34482 307.375 379.43857Q307.375 380.68857 306.42188 381.5792Q305.46875 382.46982 303.85938 382.46982Q303.1875 382.46982 302.5 382.2667Q302.0625 382.6417 301.90625 382.92294Q301.76562 383.18857 301.76562 383.3917Q301.76562 383.56357 301.92188 383.71982Q302.09375 383.87607 302.5625 383.93857Q302.82812 383.96982 303.92188 384.00107Q305.9375 384.04794 306.53125 384.1417Q307.4375 384.2667 307.96875 384.81357Q308.51562 385.36044 308.51562 386.17294Q308.51562 387.2667 307.48438 388.23544Q305.96875 389.65732 303.51562 389.65732Q301.625 389.65732 300.32812 388.81357Q299.59375 388.3292 299.59375 387.79794Q299.59375 387.56357 299.70312 387.3292Q299.875 386.96982 300.39062 386.3292Q300.45312 386.23544 301.39062 385.2667Q300.875 384.96982 300.65625 384.73544Q300.45312 384.48544 300.45312 384.18857Q300.45312 383.84482 300.73438 383.3917Q301.01562 382.92294 302.01562 382.0792ZM303.71875 376.61044Q303.0 376.61044 302.5 377.18857Q302.01562 377.75107 302.01562 378.9542Q302.01562 380.48544 302.6875 381.34482Q303.1875 381.98544 303.96875 381.98544Q304.71875 381.98544 305.1875 381.43857Q305.67188 380.87607 305.67188 379.67294Q305.67188 378.12607 305.0 377.25107Q304.5 376.61044 303.71875 376.61044ZM301.92188 385.34482Q301.46875 385.84482 301.23438 386.2667Q301.0 386.7042 301.0 387.06357Q301.0 387.53232 301.5625 387.8917Q302.53125 388.48544 304.375 388.48544Q306.14062 388.48544 306.96875 387.86044Q307.8125 387.25107 307.8125 386.54794Q307.8125 386.03232 307.3125 385.8292Q306.79688 385.61044 305.29688 385.56357Q303.10938 385.5167 301.92188 385.34482ZM310.125 379.7667Q310.125 381.7667 311.09375 382.8917Q312.07812 384.03232 313.39062 384.03232Q314.26562 384.03232 314.90625 383.54794Q315.5625 383.06357 316.01562 381.8917L316.3125 382.0792Q316.10938 383.42294 315.125 384.53232Q314.14062 385.62607 312.65625 385.62607Q311.03125 385.62607 309.89062 384.37607Q308.75 383.11044 308.75 380.98544Q308.75 378.68857 309.92188 377.40732Q311.09375 376.12607 312.875 376.12607Q314.375 376.12607 315.34375 377.12607Q316.3125 378.11044 316.3125 379.7667L310.125 379.7667ZM310.125 379.2042L314.26562 379.2042Q314.21875 378.34482 314.0625 377.98544Q313.82812 377.43857 313.34375 377.12607Q312.85938 376.81357 312.32812 376.81357Q311.51562 376.81357 310.875 377.4542Q310.23438 378.0792 310.125 379.2042ZM327.0 376.1417Q329.03125 376.1417 330.26562 377.67294Q331.3125 379.00107 331.3125 380.7042Q331.3125 381.90732 330.73438 383.1417Q330.15625 384.36044 329.14062 385.00107Q328.14062 385.62607 326.89062 385.62607Q324.875 385.62607 323.6875 384.00107Q322.67188 382.6417 322.67188 380.9542Q322.67188 379.73544 323.28125 378.5167Q323.89062 377.29794 324.89062 376.71982Q325.89062 376.1417 327.0 376.1417ZM326.70312 376.7667Q326.1875 376.7667 325.65625 377.0792Q325.14062 377.3917 324.8125 378.15732Q324.48438 378.92294 324.48438 380.1417Q324.48438 382.09482 325.26562 383.5167Q326.04688 384.92294 327.3125 384.92294Q328.26562 384.92294 328.875 384.1417Q329.48438 383.36044 329.48438 381.4542Q329.48438 379.0792 328.46875 377.7042Q327.76562 376.7667 326.70312 376.7667ZM336.125 377.09482L336.125 382.98544Q336.125 384.23544 336.39062 384.56357Q336.75 384.98544 337.35938 384.98544L338.17188 384.98544L338.17188 385.34482L332.82812 385.34482L332.82812 384.98544L333.23438 384.98544Q333.625 384.98544 333.9375 384.79794Q334.26562 384.59482 334.39062 384.2667Q334.51562 383.93857 334.51562 382.98544L334.51562 377.09482L332.76562 377.09482L332.76562 376.3917L334.51562 376.3917L334.51562 375.81357Q334.51562 374.46982 334.9375 373.54794Q335.375 372.62607 336.25 372.04794Q337.14062 371.46982 338.23438 371.46982Q339.26562 371.46982 340.125 372.1417Q340.6875 372.5792 340.6875 373.12607Q340.6875 373.42294 340.4375 373.68857Q340.1875 373.93857 339.89062 373.93857Q339.67188 373.93857 339.42188 373.78232Q339.17188 373.61044 338.8125 373.0792Q338.45312 372.54794 338.14062 372.36044Q337.84375 372.17294 337.46875 372.17294Q337.01562 372.17294 336.70312 372.42294Q336.39062 372.65732 336.25 373.15732Q336.125 373.65732 336.125 375.75107L336.125 376.3917L338.42188 376.3917L338.42188 377.09482L336.125 377.09482ZM346.21875 373.4542L346.21875 376.3917L348.3125 376.3917L348.3125 377.0792L346.21875 377.0792L346.21875 382.87607Q346.21875 383.75107 346.46875 384.06357Q346.71875 384.36044 347.10938 384.36044Q347.4375 384.36044 347.73438 384.15732Q348.04688 383.9542 348.20312 383.56357L348.59375 383.56357Q348.25 384.5167 347.625 385.00107Q347.0 385.48544 346.32812 385.48544Q345.875 385.48544 345.4375 385.23544Q345.01562 384.98544 344.8125 384.53232Q344.60938 384.06357 344.60938 383.09482L344.60938 377.0792L343.20312 377.0792L343.20312 376.7667Q343.73438 376.54794 344.29688 376.03232Q344.85938 375.5167 345.29688 374.81357Q345.51562 374.43857 345.92188 373.4542L346.21875 373.4542ZM351.25 376.1417L351.25 378.1417Q352.35938 376.1417 353.54688 376.1417Q354.07812 376.1417 354.42188 376.46982Q354.78125 376.78232 354.78125 377.21982Q354.78125 377.59482 354.53125 377.86044Q354.28125 378.12607 353.92188 378.12607Q353.59375 378.12607 353.15625 377.79794Q352.73438 377.4542 352.53125 377.4542Q352.35938 377.4542 352.15625 377.6417Q351.71875 378.04794 351.25 378.96982L351.25 383.25107Q351.25 384.00107 351.42188 384.37607Q351.5625 384.6417 351.875 384.81357Q352.20312 384.98544 352.8125 384.98544L352.8125 385.34482L348.21875 385.34482L348.21875 384.98544Q348.90625 384.98544 349.23438 384.78232Q349.48438 384.62607 349.57812 384.28232Q349.625 384.11044 349.625 383.3292L349.625 379.86044Q349.625 378.29794 349.5625 378.00107Q349.5 377.7042 349.32812 377.5792Q349.15625 377.43857 348.90625 377.43857Q348.60938 377.43857 348.21875 377.5792L348.125 377.23544L350.82812 376.1417L351.25 376.1417ZM360.6875 384.04794Q359.3125 385.12607 358.96875 385.28232Q358.4375 385.53232 357.84375 385.53232Q356.92188 385.53232 356.3125 384.90732Q355.71875 384.2667 355.71875 383.21982Q355.71875 382.56357 356.0 382.09482Q356.40625 381.42294 357.39062 380.84482Q358.39062 380.25107 360.6875 379.42294L360.6875 379.06357Q360.6875 377.71982 360.26562 377.23544Q359.84375 376.73544 359.03125 376.73544Q358.42188 376.73544 358.0625 377.06357Q357.6875 377.3917 357.6875 377.8292L357.70312 378.3917Q357.70312 378.84482 357.46875 379.09482Q357.25 379.3292 356.875 379.3292Q356.51562 379.3292 356.28125 379.0792Q356.0625 378.81357 356.0625 378.37607Q356.0625 377.54794 356.92188 376.84482Q357.78125 376.1417 359.32812 376.1417Q360.51562 376.1417 361.28125 376.53232Q361.85938 376.84482 362.125 377.48544Q362.3125 377.90732 362.3125 379.2042L362.3125 382.23544Q362.3125 383.5167 362.35938 383.81357Q362.40625 384.09482 362.51562 384.18857Q362.625 384.28232 362.78125 384.28232Q362.9375 384.28232 363.04688 384.21982Q363.25 384.09482 363.84375 383.50107L363.84375 384.04794Q362.75 385.5167 361.75 385.5167Q361.26562 385.5167 360.98438 385.18857Q360.70312 384.86044 360.6875 384.04794ZM360.6875 383.42294L360.6875 380.0167Q359.21875 380.59482 358.79688 380.84482Q358.01562 381.2667 357.6875 381.73544Q357.35938 382.2042 357.35938 382.7667Q357.35938 383.46982 357.76562 383.93857Q358.1875 384.3917 358.73438 384.3917Q359.48438 384.3917 360.6875 383.42294ZM366.90625 371.4542Q367.3125 371.4542 367.59375 371.75107Q367.89062 372.03232 367.89062 372.43857Q367.89062 372.86044 367.59375 373.15732Q367.3125 373.43857 366.90625 373.43857Q366.48438 373.43857 366.1875 373.15732Q365.90625 372.86044 365.90625 372.43857Q365.90625 372.03232 366.1875 371.75107Q366.48438 371.4542 366.90625 371.4542ZM367.71875 376.1417L367.71875 383.3292Q367.71875 384.15732 367.82812 384.43857Q367.95312 384.71982 368.1875 384.86044Q368.4375 384.98544 369.0625 384.98544L369.0625 385.34482L364.71875 385.34482L364.71875 384.98544Q365.375 384.98544 365.59375 384.86044Q365.82812 384.73544 365.95312 384.4542Q366.09375 384.15732 366.09375 383.3292L366.09375 379.87607Q366.09375 378.42294 366.0 377.98544Q365.9375 377.67294 365.78125 377.56357Q365.64062 377.43857 365.39062 377.43857Q365.10938 377.43857 364.71875 377.5792L364.59375 377.23544L367.28125 376.1417L367.71875 376.1417ZM373.23438 378.03232Q374.8125 376.1417 376.23438 376.1417Q376.96875 376.1417 377.48438 376.50107Q378.01562 376.86044 378.32812 377.7042Q378.54688 378.29794 378.54688 379.50107L378.54688 383.3292Q378.54688 384.17294 378.6875 384.46982Q378.79688 384.71982 379.03125 384.86044Q379.26562 384.98544 379.90625 384.98544L379.90625 385.34482L375.48438 385.34482L375.48438 384.98544L375.67188 384.98544Q376.29688 384.98544 376.54688 384.79794Q376.79688 384.61044 376.89062 384.23544Q376.9375 384.09482 376.9375 383.3292L376.9375 379.65732Q376.9375 378.43857 376.60938 377.8917Q376.29688 377.3292 375.54688 377.3292Q374.39062 377.3292 373.23438 378.61044L373.23438 383.3292Q373.23438 384.23544 373.34375 384.43857Q373.48438 384.73544 373.71875 384.86044Q373.95312 384.98544 374.6875 384.98544L374.6875 385.34482L370.26562 385.34482L370.26562 384.98544L370.45312 384.98544Q371.14062 384.98544 371.375 384.6417Q371.625 384.29794 371.625 383.3292L371.625 380.00107Q371.625 378.3917 371.54688 378.04794Q371.46875 377.68857 371.3125 377.56357Q371.17188 377.43857 370.92188 377.43857Q370.64062 377.43857 370.26562 377.5792L370.125 377.23544L372.8125 376.1417L373.23438 376.1417L373.23438 378.03232ZM390.9375 384.34482Q390.29688 385.0167 389.67188 385.3292Q389.04688 385.62607 388.3125 385.62607Q386.85938 385.62607 385.76562 384.40732Q384.67188 383.17294 384.67188 381.23544Q384.67188 379.31357 385.875 377.71982Q387.09375 376.12607 388.98438 376.12607Q390.17188 376.12607 390.9375 376.87607L390.9375 375.21982Q390.9375 373.68857 390.85938 373.34482Q390.79688 372.98544 390.64062 372.86044Q390.48438 372.73544 390.25 372.73544Q390.0 372.73544 389.57812 372.8917L389.45312 372.54794L392.10938 371.4542L392.5625 371.4542L392.5625 381.79794Q392.5625 383.37607 392.625 383.71982Q392.70312 384.06357 392.85938 384.2042Q393.03125 384.34482 393.23438 384.34482Q393.5 384.34482 393.9375 384.17294L394.04688 384.5167L391.39062 385.62607L390.9375 385.62607L390.9375 384.34482ZM390.9375 383.65732L390.9375 379.04794Q390.89062 378.37607 390.59375 377.8292Q390.29688 377.28232 389.8125 377.0167Q389.32812 376.73544 388.875 376.73544Q388.01562 376.73544 387.34375 377.50107Q386.45312 378.5167 386.45312 380.46982Q386.45312 382.43857 387.3125 383.50107Q388.17188 384.54794 389.21875 384.54794Q390.10938 384.54794 390.9375 383.65732ZM399.6875 384.04794Q398.3125 385.12607 397.96875 385.28232Q397.4375 385.53232 396.84375 385.53232Q395.92188 385.53232 395.3125 384.90732Q394.71875 384.2667 394.71875 383.21982Q394.71875 382.56357 395.0 382.09482Q395.40625 381.42294 396.39062 380.84482Q397.39062 380.25107 399.6875 379.42294L399.6875 379.06357Q399.6875 377.71982 399.26562 377.23544Q398.84375 376.73544 398.03125 376.73544Q397.42188 376.73544 397.0625 377.06357Q396.6875 377.3917 396.6875 377.8292L396.70312 378.3917Q396.70312 378.84482 396.46875 379.09482Q396.25 379.3292 395.875 379.3292Q395.51562 379.3292 395.28125 379.0792Q395.0625 378.81357 395.0625 378.37607Q395.0625 377.54794 395.92188 376.84482Q396.78125 376.1417 398.32812 376.1417Q399.51562 376.1417 400.28125 376.53232Q400.85938 376.84482 401.125 377.48544Q401.3125 377.90732 401.3125 379.2042L401.3125 382.23544Q401.3125 383.5167 401.35938 383.81357Q401.40625 384.09482 401.51562 384.18857Q401.625 384.28232 401.78125 384.28232Q401.9375 384.28232 402.04688 384.21982Q402.25 384.09482 402.84375 383.50107L402.84375 384.04794Q401.75 385.5167 400.75 385.5167Q400.26562 385.5167 399.98438 385.18857Q399.70312 384.86044 399.6875 384.04794ZM399.6875 383.42294L399.6875 380.0167Q398.21875 380.59482 397.79688 380.84482Q397.01562 381.2667 396.6875 381.73544Q396.35938 382.2042 396.35938 382.7667Q396.35938 383.46982 396.76562 383.93857Q397.1875 384.3917 397.73438 384.3917Q398.48438 384.3917 399.6875 383.42294ZM406.21875 373.4542L406.21875 376.3917L408.3125 376.3917L408.3125 377.0792L406.21875 377.0792L406.21875 382.87607Q406.21875 383.75107 406.46875 384.06357Q406.71875 384.36044 407.10938 384.36044Q407.4375 384.36044 407.73438 384.15732Q408.04688 383.9542 408.20312 383.56357L408.59375 383.56357Q408.25 384.5167 407.625 385.00107Q407.0 385.48544 406.32812 385.48544Q405.875 385.48544 405.4375 385.23544Q405.01562 384.98544 404.8125 384.53232Q404.60938 384.06357 404.60938 383.09482L404.60938 377.0792L403.20312 377.0792L403.20312 376.7667Q403.73438 376.54794 404.29688 376.03232Q404.85938 375.5167 405.29688 374.81357Q405.51562 374.43857 405.92188 373.4542L406.21875 373.4542ZM413.6875 384.04794Q412.3125 385.12607 411.96875 385.28232Q411.4375 385.53232 410.84375 385.53232Q409.92188 385.53232 409.3125 384.90732Q408.71875 384.2667 408.71875 383.21982Q408.71875 382.56357 409.0 382.09482Q409.40625 381.42294 410.39062 380.84482Q411.39062 380.25107 413.6875 379.42294L413.6875 379.06357Q413.6875 377.71982 413.26562 377.23544Q412.84375 376.73544 412.03125 376.73544Q411.42188 376.73544 411.0625 377.06357Q410.6875 377.3917 410.6875 377.8292L410.70312 378.3917Q410.70312 378.84482 410.46875 379.09482Q410.25 379.3292 409.875 379.3292Q409.51562 379.3292 409.28125 379.0792Q409.0625 378.81357 409.0625 378.37607Q409.0625 377.54794 409.92188 376.84482Q410.78125 376.1417 412.32812 376.1417Q413.51562 376.1417 414.28125 376.53232Q414.85938 376.84482 415.125 377.48544Q415.3125 377.90732 415.3125 379.2042L415.3125 382.23544Q415.3125 383.5167 415.35938 383.81357Q415.40625 384.09482 415.51562 384.18857Q415.625 384.28232 415.78125 384.28232Q415.9375 384.28232 416.04688 384.21982Q416.25 384.09482 416.84375 383.50107L416.84375 384.04794Q415.75 385.5167 414.75 385.5167Q414.26562 385.5167 413.98438 385.18857Q413.70312 384.86044 413.6875 384.04794ZM413.6875 383.42294L413.6875 380.0167Q412.21875 380.59482 411.79688 380.84482Q411.01562 381.2667 410.6875 381.73544Q410.35938 382.2042 410.35938 382.7667Q410.35938 383.46982 410.76562 383.93857Q411.1875 384.3917 411.73438 384.3917Q412.48438 384.3917 413.6875 383.42294ZM430.46875 376.3917L430.46875 381.81357Q430.46875 383.37607 430.53125 383.71982Q430.60938 384.06357 430.76562 384.2042Q430.9375 384.34482 431.15625 384.34482Q431.45312 384.34482 431.82812 384.17294L431.96875 384.5167L429.29688 385.62607L428.85938 385.62607L428.85938 383.71982Q427.70312 384.96982 427.09375 385.29794Q426.5 385.62607 425.8125 385.62607Q425.0625 385.62607 424.51562 385.18857Q423.96875 384.75107 423.75 384.06357Q423.53125 383.37607 423.53125 382.12607L423.53125 378.1417Q423.53125 377.50107 423.39062 377.2667Q423.26562 377.0167 422.98438 376.8917Q422.71875 376.75107 422.01562 376.7667L422.01562 376.3917L425.15625 376.3917L425.15625 382.3917Q425.15625 383.6417 425.59375 384.03232Q426.03125 384.42294 426.64062 384.42294Q427.0625 384.42294 427.59375 384.15732Q428.125 383.8917 428.85938 383.1417L428.85938 378.0792Q428.85938 377.31357 428.57812 377.04794Q428.29688 376.78232 427.42188 376.7667L427.42188 376.3917L430.46875 376.3917ZM437.40625 376.1417L437.40625 379.18857L437.07812 379.18857Q436.71875 377.75107 436.125 377.23544Q435.54688 376.7042 434.65625 376.7042Q433.96875 376.7042 433.54688 377.0792Q433.125 377.43857 433.125 377.87607Q433.125 378.42294 433.4375 378.81357Q433.75 379.2042 434.67188 379.65732L436.09375 380.36044Q438.07812 381.31357 438.07812 382.90732Q438.07812 384.12607 437.15625 384.87607Q436.23438 385.62607 435.09375 385.62607Q434.26562 385.62607 433.21875 385.3292Q432.89062 385.21982 432.6875 385.21982Q432.46875 385.21982 432.34375 385.48544L432.01562 385.48544L432.01562 382.28232L432.34375 382.28232Q432.60938 383.65732 433.375 384.36044Q434.15625 385.04794 435.10938 385.04794Q435.78125 385.04794 436.20312 384.65732Q436.64062 384.25107 436.64062 383.68857Q436.64062 383.0167 436.15625 382.56357Q435.6875 382.09482 434.26562 381.3917Q432.85938 380.68857 432.42188 380.12607Q431.98438 379.5792 431.98438 378.71982Q431.98438 377.62607 432.73438 376.8917Q433.48438 376.1417 434.6875 376.1417Q435.21875 376.1417 435.96875 376.36044Q436.46875 376.50107 436.64062 376.50107Q436.79688 376.50107 436.875 376.43857Q436.96875 376.37607 437.07812 376.1417L437.40625 376.1417ZM441.125 379.7667Q441.125 381.7667 442.09375 382.8917Q443.07812 384.03232 444.39062 384.03232Q445.26562 384.03232 445.90625 383.54794Q446.5625 383.06357 447.01562 381.8917L447.3125 382.0792Q447.10938 383.42294 446.125 384.53232Q445.14062 385.62607 443.65625 385.62607Q442.03125 385.62607 440.89062 384.37607Q439.75 383.11044 439.75 380.98544Q439.75 378.68857 440.92188 377.40732Q442.09375 376.12607 443.875 376.12607Q445.375 376.12607 446.34375 377.12607Q447.3125 378.11044 447.3125 379.7667L441.125 379.7667ZM441.125 379.2042L445.26562 379.2042Q445.21875 378.34482 445.0625 377.98544Q444.82812 377.43857 444.34375 377.12607Q443.85938 376.81357 443.32812 376.81357Q442.51562 376.81357 441.875 377.4542Q441.23438 378.0792 441.125 379.2042ZM454.9375 384.34482Q454.29688 385.0167 453.67188 385.3292Q453.04688 385.62607 452.3125 385.62607Q450.85938 385.62607 449.76562 384.40732Q448.67188 383.17294 448.67188 381.23544Q448.67188 379.31357 449.875 377.71982Q451.09375 376.12607 452.98438 376.12607Q454.17188 376.12607 454.9375 376.87607L454.9375 375.21982Q454.9375 373.68857 454.85938 373.34482Q454.79688 372.98544 454.64062 372.86044Q454.48438 372.73544 454.25 372.73544Q454.0 372.73544 453.57812 372.8917L453.45312 372.54794L456.10938 371.4542L456.5625 371.4542L456.5625 381.79794Q456.5625 383.37607 456.625 383.71982Q456.70312 384.06357 456.85938 384.2042Q457.03125 384.34482 457.23438 384.34482Q457.5 384.34482 457.9375 384.17294L458.04688 384.5167L455.39062 385.62607L454.9375 385.62607L454.9375 384.34482ZM454.9375 383.65732L454.9375 379.04794Q454.89062 378.37607 454.59375 377.8292Q454.29688 377.28232 453.8125 377.0167Q453.32812 376.73544 452.875 376.73544Q452.01562 376.73544 451.34375 377.50107Q450.45312 378.5167 450.45312 380.46982Q450.45312 382.43857 451.3125 383.50107Q452.17188 384.54794 453.21875 384.54794Q454.10938 384.54794 454.9375 383.65732Z" fill-rule="nonzero"/><path fill="#000000" d="M50.946877 265.48566L54.80625 265.48566Q56.05625 265.48566 56.353127 265.22003Q56.790627 264.84503 56.790627 264.09503L56.790627 263.59503L57.15 263.59503L57.15 269.2669L56.790627 269.2669L56.790627 268.7669Q56.790627 267.92316 56.24375 267.56378Q55.93125 267.36066 54.80625 267.36066L46.24375 267.36066Q44.99375 267.36066 44.696877 267.62628Q44.275 268.0169 44.275 268.7669L44.275 269.2669L43.9 269.2669L43.9 264.40753Q43.9 262.62628 44.275 261.61066Q44.634377 260.5794 45.509377 259.87628Q46.384377 259.17316 47.571877 259.17316Q49.196877 259.17316 50.2125 260.25128Q51.228127 261.31378 51.228127 263.2669Q51.228127 263.75128 51.165627 264.31378Q51.0875 264.86066 50.946877 265.48566ZM50.384377 265.48566Q50.49375 264.97003 50.540627 264.5794Q50.5875 264.17316 50.5875 263.8919Q50.5875 262.87628 49.80625 262.1419Q49.009377 261.40753 47.759377 261.40753Q46.9 261.40753 46.165627 261.7669Q45.43125 262.11066 45.071877 262.75128Q44.696877 263.3919 44.696877 264.22003Q44.696877 264.7044 44.884377 265.48566L50.384377 265.48566ZM47.946877 255.34503L49.946877 255.34503Q47.946877 254.23566 47.946877 253.04816Q47.946877 252.5169 48.275 252.17316Q48.5875 251.81378 49.025 251.81378Q49.4 251.81378 49.665627 252.06378Q49.93125 252.31378 49.93125 252.67316Q49.93125 253.00128 49.603127 253.43878Q49.259377 253.86066 49.259377 254.06378Q49.259377 254.23566 49.446877 254.43878Q49.853127 254.87628 50.775 255.34503L55.05625 255.34503Q55.80625 255.34503 56.18125 255.17316Q56.446877 255.03253 56.61875 254.72003Q56.790627 254.3919 56.790627 253.78253L57.15 253.78253L57.15 258.37628L56.790627 258.37628Q56.790627 257.68878 56.5875 257.36066Q56.43125 257.11066 56.0875 257.0169Q55.915627 256.97003 55.134377 256.97003L51.665627 256.97003Q50.103127 256.97003 49.80625 257.03253Q49.509377 257.09503 49.384377 257.2669Q49.24375 257.43878 49.24375 257.68878Q49.24375 257.98566 49.384377 258.37628L49.040627 258.47003L47.946877 255.7669L47.946877 255.34503ZM51.571877 249.47003Q53.571877 249.47003 54.696877 248.50128Q55.8375 247.5169 55.8375 246.2044Q55.8375 245.3294 55.353127 244.68878Q54.86875 244.03253 53.696877 243.5794L53.884377 243.28253Q55.228127 243.48566 56.3375 244.47003Q57.43125 245.4544 57.43125 246.93878Q57.43125 248.56378 56.18125 249.7044Q54.915627 250.84503 52.790627 250.84503Q50.49375 250.84503 49.2125 249.67316Q47.93125 248.50128 47.93125 246.72003Q47.93125 245.22003 48.93125 244.25128Q49.915627 243.28253 51.571877 243.28253L51.571877 249.47003ZM51.009377 249.47003L51.009377 245.3294Q50.15 245.37628 49.790627 245.53253Q49.24375 245.7669 48.93125 246.25128Q48.61875 246.73566 48.61875 247.2669Q48.61875 248.0794 49.259377 248.72003Q49.884377 249.36066 51.009377 249.47003ZM56.15 235.65753Q56.821877 236.29816 57.134377 236.92316Q57.43125 237.54816 57.43125 238.28253Q57.43125 239.73566 56.2125 240.8294Q54.978127 241.92316 53.040627 241.92316Q51.11875 241.92316 49.525 240.72003Q47.93125 239.50128 47.93125 237.61066Q47.93125 236.42316 48.68125 235.65753L47.025 235.65753Q45.49375 235.65753 45.15 235.73566Q44.790627 235.79816 44.665627 235.9544Q44.540627 236.11066 44.540627 236.34503Q44.540627 236.59503 44.696877 237.0169L44.353127 237.1419L43.259377 234.48566L43.259377 234.03253L53.603127 234.03253Q55.18125 234.03253 55.525 233.97003Q55.86875 233.8919 56.009377 233.73566Q56.15 233.56378 56.15 233.36066Q56.15 233.09503 55.978127 232.65753L56.321877 232.54816L57.43125 235.2044L57.43125 235.65753L56.15 235.65753ZM55.4625 235.65753L50.853127 235.65753Q50.18125 235.7044 49.634377 236.00128Q49.0875 236.29816 48.821877 236.78253Q48.540627 237.2669 48.540627 237.72003Q48.540627 238.5794 49.30625 239.25128Q50.321877 240.1419 52.275 240.1419Q54.24375 240.1419 55.30625 239.28253Q56.353127 238.42316 56.353127 237.37628Q56.353127 236.48566 55.4625 235.65753ZM43.259377 229.68878Q43.259377 229.28253 43.55625 229.00128Q43.8375 228.7044 44.24375 228.7044Q44.665627 228.7044 44.9625 229.00128Q45.24375 229.28253 45.24375 229.68878Q45.24375 230.11066 44.9625 230.40753Q44.665627 230.68878 44.24375 230.68878Q43.8375 230.68878 43.55625 230.40753Q43.259377 230.11066 43.259377 229.68878ZM47.946877 228.87628L55.134377 228.87628Q55.9625 228.87628 56.24375 228.7669Q56.525 228.6419 56.665627 228.40753Q56.790627 228.15753 56.790627 227.53253L57.15 227.53253L57.15 231.87628L56.790627 231.87628Q56.790627 231.22003 56.665627 231.00128Q56.540627 230.7669 56.259377 230.6419Q55.9625 230.50128 55.134377 230.50128L51.68125 230.50128Q50.228127 230.50128 49.790627 230.59503Q49.478127 230.65753 49.36875 230.81378Q49.24375 230.9544 49.24375 231.2044Q49.24375 231.48566 49.384377 231.87628L49.040627 232.00128L47.946877 229.31378L47.946877 228.87628ZM53.74375 218.37628Q55.525 218.73566 56.478127 219.79816Q57.43125 220.84503 57.43125 222.12628Q57.43125 223.6419 56.15 224.78253Q54.86875 225.90753 52.68125 225.90753Q50.571877 225.90753 49.259377 224.65753Q47.946877 223.40753 47.946877 221.6419Q47.946877 220.3294 48.65 219.48566Q49.3375 218.62628 50.0875 218.62628Q50.4625 218.62628 50.696877 218.87628Q50.915627 219.11066 50.915627 219.53253Q50.915627 220.11066 50.540627 220.40753Q50.3375 220.56378 49.775 220.62628Q49.196877 220.67316 48.884377 221.0169Q48.5875 221.36066 48.5875 221.97003Q48.5875 222.93878 49.321877 223.53253Q50.275 224.3294 51.853127 224.3294Q53.446877 224.3294 54.68125 223.54816Q55.9 222.75128 55.9 221.42316Q55.9 220.4544 55.24375 219.7044Q54.790627 219.15753 53.61875 218.65753L53.74375 218.37628ZM45.259377 214.37628L48.196877 214.37628L48.196877 212.28253L48.884377 212.28253L48.884377 214.37628L54.68125 214.37628Q55.55625 214.37628 55.86875 214.12628Q56.165627 213.87628 56.165627 213.48566Q56.165627 213.15753 55.9625 212.86066Q55.759377 212.54816 55.36875 212.3919L55.36875 212.00128Q56.321877 212.34503 56.80625 212.97003Q57.290627 213.59503 57.290627 214.2669Q57.290627 214.72003 57.040627 215.15753Q56.790627 215.5794 56.3375 215.78253Q55.86875 215.98566 54.9 215.98566L48.884377 215.98566L48.884377 217.3919L48.571877 217.3919Q48.353127 216.86066 47.8375 216.29816Q47.321877 215.73566 46.61875 215.29816Q46.24375 215.0794 45.259377 214.67316L45.259377 214.37628ZM43.259377 209.68878Q43.259377 209.28253 43.55625 209.00128Q43.8375 208.7044 44.24375 208.7044Q44.665627 208.7044 44.9625 209.00128Q45.24375 209.28253 45.24375 209.68878Q45.24375 210.11066 44.9625 210.40753Q44.665627 210.68878 44.24375 210.68878Q43.8375 210.68878 43.55625 210.40753Q43.259377 210.11066 43.259377 209.68878ZM47.946877 208.87628L55.134377 208.87628Q55.9625 208.87628 56.24375 208.7669Q56.525 208.6419 56.665627 208.40753Q56.790627 208.15753 56.790627 207.53253L57.15 207.53253L57.15 211.87628L56.790627 211.87628Q56.790627 211.22003 56.665627 211.00128Q56.540627 210.7669 56.259377 210.6419Q55.9625 210.50128 55.134377 210.50128L51.68125 210.50128Q50.228127 210.50128 49.790627 210.59503Q49.478127 210.65753 49.36875 210.81378Q49.24375 210.9544 49.24375 211.2044Q49.24375 211.48566 49.384377 211.87628L49.040627 212.00128L47.946877 209.31378L47.946877 208.87628ZM47.946877 201.59503Q47.946877 199.56378 49.478127 198.3294Q50.80625 197.28253 52.509377 197.28253Q53.7125 197.28253 54.946877 197.86066Q56.165627 198.43878 56.80625 199.4544Q57.43125 200.4544 57.43125 201.7044Q57.43125 203.72003 55.80625 204.90753Q54.446877 205.92316 52.759377 205.92316Q51.540627 205.92316 50.321877 205.31378Q49.103127 204.7044 48.525 203.7044Q47.946877 202.7044 47.946877 201.59503ZM48.571877 201.8919Q48.571877 202.40753 48.884377 202.93878Q49.196877 203.4544 49.9625 203.78253Q50.728127 204.11066 51.946877 204.11066Q53.9 204.11066 55.321877 203.3294Q56.728127 202.54816 56.728127 201.28253Q56.728127 200.3294 55.946877 199.72003Q55.165627 199.11066 53.259377 199.11066Q50.884377 199.11066 49.509377 200.12628Q48.571877 200.8294 48.571877 201.8919ZM49.8375 193.36066Q47.946877 191.78253 47.946877 190.36066Q47.946877 189.62628 48.30625 189.11066Q48.665627 188.5794 49.509377 188.2669Q50.103127 188.04816 51.30625 188.04816L55.134377 188.04816Q55.978127 188.04816 56.275 187.90753Q56.525 187.79816 56.665627 187.56378Q56.790627 187.3294 56.790627 186.68878L57.15 186.68878L57.15 191.11066L56.790627 191.11066L56.790627 190.92316Q56.790627 190.29816 56.603127 190.04816Q56.415627 189.79816 56.040627 189.7044Q55.9 189.65753 55.134377 189.65753L51.4625 189.65753Q50.24375 189.65753 49.696877 189.98566Q49.134377 190.29816 49.134377 191.04816Q49.134377 192.2044 50.415627 193.36066L55.134377 193.36066Q56.040627 193.36066 56.24375 193.25128Q56.540627 193.11066 56.665627 192.87628Q56.790627 192.6419 56.790627 191.90753L57.15 191.90753L57.15 196.3294L56.790627 196.3294L56.790627 196.1419Q56.790627 195.4544 56.446877 195.22003Q56.103127 194.97003 55.134377 194.97003L51.80625 194.97003Q50.196877 194.97003 49.853127 195.04816Q49.49375 195.12628 49.36875 195.28253Q49.24375 195.42316 49.24375 195.67316Q49.24375 195.9544 49.384377 196.3294L49.040627 196.47003L47.946877 193.78253L47.946877 193.36066L49.8375 193.36066ZM52.7125 173.43878L52.7125 178.56378L54.80625 179.47003Q55.571877 179.79816 55.9625 179.79816Q56.259377 179.79816 56.49375 179.5169Q56.7125 179.22003 56.790627 178.2669L57.15 178.2669L57.15 182.43878L56.790627 182.43878Q56.634377 181.61066 56.4 181.36066Q55.93125 180.86066 54.509377 180.2669L43.603127 175.59503L43.603127 175.2669L54.61875 170.65753Q55.946877 170.09503 56.353127 169.6419Q56.74375 169.18878 56.790627 168.37628L57.15 168.37628L57.15 173.59503L56.790627 173.59503Q56.74375 172.81378 56.525 172.53253Q56.30625 172.25128 55.978127 172.25128Q55.540627 172.25128 54.61875 172.6419L52.7125 173.43878ZM51.99375 173.72003L46.634377 175.97003L51.99375 178.2669L51.99375 173.72003ZM53.74375 160.37628Q55.525 160.73566 56.478127 161.79816Q57.43125 162.84503 57.43125 164.12628Q57.43125 165.6419 56.15 166.78253Q54.86875 167.90753 52.68125 167.90753Q50.571877 167.90753 49.259377 166.65753Q47.946877 165.40753 47.946877 163.6419Q47.946877 162.3294 48.65 161.48566Q49.3375 160.62628 50.0875 160.62628Q50.4625 160.62628 50.696877 160.87628Q50.915627 161.11066 50.915627 161.53253Q50.915627 162.11066 50.540627 162.40753Q50.3375 162.56378 49.775 162.62628Q49.196877 162.67316 48.884377 163.0169Q48.5875 163.36066 48.5875 163.97003Q48.5875 164.93878 49.321877 165.53253Q50.275 166.3294 51.853127 166.3294Q53.446877 166.3294 54.68125 165.54816Q55.9 164.75128 55.9 163.42316Q55.9 162.4544 55.24375 161.7044Q54.790627 161.15753 53.61875 160.65753L53.74375 160.37628ZM53.74375 151.37628Q55.525 151.73566 56.478127 152.79816Q57.43125 153.84503 57.43125 155.12628Q57.43125 156.6419 56.15 157.78253Q54.86875 158.90753 52.68125 158.90753Q50.571877 158.90753 49.259377 157.65753Q47.946877 156.40753 47.946877 154.6419Q47.946877 153.3294 48.65 152.48566Q49.3375 151.62628 50.0875 151.62628Q50.4625 151.62628 50.696877 151.87628Q50.915627 152.11066 50.915627 152.53253Q50.915627 153.11066 50.540627 153.40753Q50.3375 153.56378 49.775 153.62628Q49.196877 153.67316 48.884377 154.0169Q48.5875 154.36066 48.5875 154.97003Q48.5875 155.93878 49.321877 156.53253Q50.275 157.3294 51.853127 157.3294Q53.446877 157.3294 54.68125 156.54816Q55.9 155.75128 55.9 154.42316Q55.9 153.4544 55.24375 152.7044Q54.790627 152.15753 53.61875 151.65753L53.74375 151.37628ZM48.196877 142.12628L53.61875 142.12628Q55.18125 142.12628 55.525 142.06378Q55.86875 141.98566 56.009377 141.8294Q56.15 141.65753 56.15 141.43878Q56.15 141.1419 55.978127 140.7669L56.321877 140.62628L57.43125 143.29816L57.43125 143.73566L55.525 143.73566Q56.775 144.8919 57.103127 145.50128Q57.43125 146.09503 57.43125 146.78253Q57.43125 147.53253 56.99375 148.0794Q56.55625 148.62628 55.86875 148.84503Q55.18125 149.06378 53.93125 149.06378L49.946877 149.06378Q49.30625 149.06378 49.071877 149.2044Q48.821877 149.3294 48.696877 149.61066Q48.55625 149.87628 48.571877 150.5794L48.196877 150.5794L48.196877 147.43878L54.196877 147.43878Q55.446877 147.43878 55.8375 147.00128Q56.228127 146.56378 56.228127 145.9544Q56.228127 145.53253 55.9625 145.00128Q55.696877 144.47003 54.946877 143.73566L49.884377 143.73566Q49.11875 143.73566 48.853127 144.0169Q48.5875 144.29816 48.571877 145.17316L48.196877 145.17316L48.196877 142.12628ZM47.946877 138.34503L49.946877 138.34503Q47.946877 137.23566 47.946877 136.04816Q47.946877 135.5169 48.275 135.17316Q48.5875 134.81378 49.025 134.81378Q49.4 134.81378 49.665627 135.06378Q49.93125 135.31378 49.93125 135.67316Q49.93125 136.00128 49.603127 136.43878Q49.259377 136.86066 49.259377 137.06378Q49.259377 137.23566 49.446877 137.43878Q49.853127 137.87628 50.775 138.34503L55.05625 138.34503Q55.80625 138.34503 56.18125 138.17316Q56.446877 138.03253 56.61875 137.72003Q56.790627 137.3919 56.790627 136.78253L57.15 136.78253L57.15 141.37628L56.790627 141.37628Q56.790627 140.68878 56.5875 140.36066Q56.43125 140.11066 56.0875 140.0169Q55.915627 139.97003 55.134377 139.97003L51.665627 139.97003Q50.103127 139.97003 49.80625 140.03253Q49.509377 140.09503 49.384377 140.2669Q49.24375 140.43878 49.24375 140.68878Q49.24375 140.98566 49.384377 141.37628L49.040627 141.47003L47.946877 138.7669L47.946877 138.34503ZM55.853127 128.90753Q56.93125 130.28253 57.0875 130.62628Q57.3375 131.15753 57.3375 131.75128Q57.3375 132.67316 56.7125 133.28253Q56.071877 133.87628 55.025 133.87628Q54.36875 133.87628 53.9 133.59503Q53.228127 133.18878 52.65 132.2044Q52.05625 131.2044 51.228127 128.90753L50.86875 128.90753Q49.525 128.90753 49.040627 129.3294Q48.540627 129.75128 48.540627 130.56378Q48.540627 131.17316 48.86875 131.53253Q49.196877 131.90753 49.634377 131.90753L50.196877 131.8919Q50.65 131.8919 50.9 132.12628Q51.134377 132.34503 51.134377 132.72003Q51.134377 133.0794 50.884377 133.31378Q50.61875 133.53253 50.18125 133.53253Q49.353127 133.53253 48.65 132.67316Q47.946877 131.81378 47.946877 130.2669Q47.946877 129.0794 48.3375 128.31378Q48.65 127.73566 49.290627 127.47003Q49.7125 127.28253 51.009377 127.28253L54.040627 127.28253Q55.321877 127.28253 55.61875 127.23566Q55.9 127.18878 55.99375 127.07941Q56.0875 126.97003 56.0875 126.81378Q56.0875 126.65753 56.025 126.54816Q55.9 126.34503 55.30625 125.75128L55.853127 125.75128Q57.321877 126.84503 57.321877 127.84503Q57.321877 128.3294 56.99375 128.61066Q56.665627 128.8919 55.853127 128.90753ZM55.228127 128.90753L51.821877 128.90753Q52.4 130.37628 52.65 130.79816Q53.071877 131.5794 53.540627 131.90753Q54.009377 132.23566 54.571877 132.23566Q55.275 132.23566 55.74375 131.8294Q56.196877 131.40753 56.196877 130.86066Q56.196877 130.11066 55.228127 128.90753ZM53.74375 117.37628Q55.525 117.73566 56.478127 118.79816Q57.43125 119.84503 57.43125 121.12628Q57.43125 122.64191 56.15 123.78253Q54.86875 124.90753 52.68125 124.90753Q50.571877 124.90753 49.259377 123.65753Q47.946877 122.40753 47.946877 120.64191Q47.946877 119.32941 48.65 118.48566Q49.3375 117.62628 50.0875 117.62628Q50.4625 117.62628 50.696877 117.87628Q50.915627 118.11066 50.915627 118.53253Q50.915627 119.11066 50.540627 119.40753Q50.3375 119.56378 49.775 119.62628Q49.196877 119.67316 48.884377 120.01691Q48.5875 120.36066 48.5875 120.97003Q48.5875 121.93878 49.321877 122.53253Q50.275 123.32941 51.853127 123.32941Q53.446877 123.32941 54.68125 122.54816Q55.9 121.75128 55.9 120.42316Q55.9 119.45441 55.24375 118.70441Q54.790627 118.15753 53.61875 117.65753L53.74375 117.37628ZM48.196877 116.47003L48.196877 112.31378L48.571877 112.31378L48.571877 112.51691Q48.571877 112.95441 48.759377 113.17316Q48.946877 113.39191 49.228127 113.39191Q49.603127 113.39191 50.290627 113.06378L54.790627 110.89191L49.853127 108.89191Q49.446877 108.72003 49.05625 108.72003Q48.884377 108.72003 48.80625 108.79816Q48.696877 108.87628 48.634377 109.04816Q48.571877 109.20441 48.571877 109.62628L48.196877 109.62628L48.196877 106.70441L48.571877 106.70441Q48.603127 107.07941 48.728127 107.28253Q48.8375 107.47003 49.165627 107.70441Q49.290627 107.78253 49.915627 108.03253L58.8375 111.67316Q60.134377 112.20441 60.790627 113.06378Q61.4625 113.90753 61.4625 114.70441Q61.4625 115.28253 61.134377 115.65753Q60.80625 116.01691 60.36875 116.01691Q59.9625 116.01691 59.7125 115.75128Q59.4625 115.48566 59.4625 115.01691Q59.4625 114.68878 59.68125 114.12628Q59.821877 113.73566 59.821877 113.64191Q59.821877 113.34503 59.525 113.00128Q59.228127 112.65753 58.353127 112.31378L56.790627 111.67316L50.05625 114.89191Q49.74375 115.03253 49.290627 115.36066Q48.9625 115.59503 48.8375 115.75128Q48.68125 115.98566 48.571877 116.47003L48.196877 116.47003Z" fill-rule="nonzero"/><path fill="#000000" d="M74.0 336.42188Q74.0 334.82812 74.484375 333.6875Q74.96875 332.54688 75.75 331.98438Q76.375 331.53125 77.03125 331.53125Q78.09375 331.53125 78.9375 332.625Q80.0 333.96875 80.0 336.28125Q80.0 337.89062 79.53125 339.01562Q79.078125 340.14062 78.34375 340.65625Q77.625 341.17188 76.953125 341.17188Q75.640625 341.17188 74.75 339.59375Q74.0 338.28125 74.0 336.42188ZM75.34375 336.59375Q75.34375 338.5 75.8125 339.71875Q76.203125 340.73438 76.984375 340.73438Q77.34375 340.73438 77.734375 340.40625Q78.140625 340.0625 78.34375 339.29688Q78.65625 338.10938 78.65625 335.96875Q78.65625 334.39062 78.328125 333.32812Q78.09375 332.54688 77.703125 332.21875Q77.421875 331.98438 77.015625 331.98438Q76.5625 331.98438 76.1875 332.40625Q75.703125 332.96875 75.515625 334.1875Q75.34375 335.40625 75.34375 336.59375ZM82.25 339.67188Q82.578125 339.67188 82.796875 339.90625Q83.015625 340.125 83.015625 340.4375Q83.015625 340.75 82.78125 340.96875Q82.5625 341.1875 82.25 341.1875Q81.9375 341.1875 81.703125 340.96875Q81.484375 340.75 81.484375 340.4375Q81.484375 340.10938 81.703125 339.89062Q81.9375 339.67188 82.25 339.67188ZM90.921875 339.21875L90.265625 341.0L84.796875 341.0L84.796875 340.75Q87.21875 338.54688 88.203125 337.15625Q89.1875 335.75 89.1875 334.59375Q89.1875 333.71875 88.640625 333.15625Q88.109375 332.57812 87.34375 332.57812Q86.671875 332.57812 86.125 332.98438Q85.578125 333.39062 85.328125 334.15625L85.0625 334.15625Q85.234375 332.89062 85.9375 332.21875Q86.65625 331.53125 87.71875 331.53125Q88.84375 331.53125 89.59375 332.26562Q90.359375 332.98438 90.359375 333.96875Q90.359375 334.67188 90.03125 335.375Q89.515625 336.48438 88.390625 337.71875Q86.6875 339.57812 86.25 339.96875L88.671875 339.96875Q89.421875 339.96875 89.71875 339.92188Q90.015625 339.85938 90.25 339.6875Q90.484375 339.51562 90.671875 339.21875L90.921875 339.21875Z" fill-rule="nonzero"/><path fill="#000000" d="M74.0 273.29688Q74.0 271.70312 74.484375 270.5625Q74.96875 269.42188 75.75 268.85938Q76.375 268.40625 77.03125 268.40625Q78.09375 268.40625 78.9375 269.5Q80.0 270.84375 80.0 273.15625Q80.0 274.76562 79.53125 275.89062Q79.078125 277.01562 78.34375 277.53125Q77.625 278.04688 76.953125 278.04688Q75.640625 278.04688 74.75 276.46875Q74.0 275.15625 74.0 273.29688ZM75.34375 273.46875Q75.34375 275.375 75.8125 276.59375Q76.203125 277.60938 76.984375 277.60938Q77.34375 277.60938 77.734375 277.28125Q78.140625 276.9375 78.34375 276.17188Q78.65625 274.98438 78.65625 272.84375Q78.65625 271.26562 78.328125 270.20312Q78.09375 269.42188 77.703125 269.09375Q77.421875 268.85938 77.015625 268.85938Q76.5625 268.85938 76.1875 269.28125Q75.703125 269.84375 75.515625 271.0625Q75.34375 272.28125 75.34375 273.46875ZM82.25 276.54688Q82.578125 276.54688 82.796875 276.78125Q83.015625 277.0 83.015625 277.3125Q83.015625 277.625 82.78125 277.84375Q82.5625 278.0625 82.25 278.0625Q81.9375 278.0625 81.703125 277.84375Q81.484375 277.625 81.484375 277.3125Q81.484375 276.98438 81.703125 276.76562Q81.9375 276.54688 82.25 276.54688ZM91.015625 274.45312L91.015625 275.42188L89.765625 275.42188L89.765625 277.875L88.640625 277.875L88.640625 275.42188L84.71875 275.42188L84.71875 274.54688L89.015625 268.40625L89.765625 268.40625L89.765625 274.45312L91.015625 274.45312ZM88.640625 274.45312L88.640625 269.85938L85.390625 274.45312L88.640625 274.45312Z" fill-rule="nonzero"/><path fill="#000000" d="M74.0 210.17188Q74.0 208.57812 74.484375 207.4375Q74.96875 206.29688 75.75 205.73438Q76.375 205.28125 77.03125 205.28125Q78.09375 205.28125 78.9375 206.375Q80.0 207.71875 80.0 210.03125Q80.0 211.64062 79.53125 212.76562Q79.078125 213.89062 78.34375 214.40625Q77.625 214.92188 76.953125 214.92188Q75.640625 214.92188 74.75 213.34375Q74.0 212.03125 74.0 210.17188ZM75.34375 210.34375Q75.34375 212.25 75.8125 213.46875Q76.203125 214.48438 76.984375 214.48438Q77.34375 214.48438 77.734375 214.15625Q78.140625 213.8125 78.34375 213.04688Q78.65625 211.85938 78.65625 209.71875Q78.65625 208.14062 78.328125 207.07812Q78.09375 206.29688 77.703125 205.96875Q77.421875 205.73438 77.015625 205.73438Q76.5625 205.73438 76.1875 206.15625Q75.703125 206.71875 75.515625 207.9375Q75.34375 209.15625 75.34375 210.34375ZM82.25 213.42188Q82.578125 213.42188 82.796875 213.65625Q83.015625 213.875 83.015625 214.1875Q83.015625 214.5 82.78125 214.71875Q82.5625 214.9375 82.25 214.9375Q81.9375 214.9375 81.703125 214.71875Q81.484375 214.5 81.484375 214.1875Q81.484375 213.85938 81.703125 213.64062Q81.9375 213.42188 82.25 213.42188ZM90.78125 205.28125L90.78125 205.54688Q89.875 205.625 89.296875 205.90625Q88.734375 206.17188 88.171875 206.73438Q87.625 207.28125 87.25 207.96875Q86.890625 208.64062 86.640625 209.57812Q87.625 208.89062 88.609375 208.89062Q89.5625 208.89062 90.25 209.65625Q90.953125 210.42188 90.953125 211.625Q90.953125 212.79688 90.25 213.75Q89.40625 214.92188 88.015625 214.92188Q87.0625 214.92188 86.40625 214.28125Q85.109375 213.0625 85.109375 211.10938Q85.109375 209.875 85.59375 208.75Q86.09375 207.625 87.015625 206.76562Q87.953125 205.89062 88.796875 205.59375Q89.640625 205.28125 90.375 205.28125L90.78125 205.28125ZM86.53125 210.07812Q86.40625 211.0 86.40625 211.5625Q86.40625 212.21875 86.640625 213.0Q86.890625 213.76562 87.359375 214.20312Q87.71875 214.53125 88.21875 214.53125Q88.8125 214.53125 89.28125 213.96875Q89.75 213.40625 89.75 212.375Q89.75 211.20312 89.28125 210.35938Q88.8125 209.5 87.953125 209.5Q87.703125 209.5 87.40625 209.60938Q87.109375 209.71875 86.53125 210.07812Z" fill-rule="nonzero"/><path fill="#000000" d="M74.0 147.04688Q74.0 145.45312 74.484375 144.3125Q74.96875 143.17188 75.75 142.60938Q76.375 142.15625 77.03125 142.15625Q78.09375 142.15625 78.9375 143.25Q80.0 144.59375 80.0 146.90625Q80.0 148.51562 79.53125 149.64062Q79.078125 150.76562 78.34375 151.28125Q77.625 151.79688 76.953125 151.79688Q75.640625 151.79688 74.75 150.21875Q74.0 148.90625 74.0 147.04688ZM75.34375 147.21875Q75.34375 149.125 75.8125 150.34375Q76.203125 151.35938 76.984375 151.35938Q77.34375 151.35938 77.734375 151.03125Q78.140625 150.6875 78.34375 149.92188Q78.65625 148.73438 78.65625 146.59375Q78.65625 145.01562 78.328125 143.95312Q78.09375 143.17188 77.703125 142.84375Q77.421875 142.60938 77.015625 142.60938Q76.5625 142.60938 76.1875 143.03125Q75.703125 143.59375 75.515625 144.8125Q75.34375 146.03125 75.34375 147.21875ZM82.25 150.29688Q82.578125 150.29688 82.796875 150.53125Q83.015625 150.75 83.015625 151.0625Q83.015625 151.375 82.78125 151.59375Q82.5625 151.8125 82.25 151.8125Q81.9375 151.8125 81.703125 151.59375Q81.484375 151.375 81.484375 151.0625Q81.484375 150.73438 81.703125 150.51562Q81.9375 150.29688 82.25 150.29688ZM87.1875 146.95312Q86.09375 146.04688 85.765625 145.5Q85.453125 144.95312 85.453125 144.375Q85.453125 143.46875 86.140625 142.8125Q86.84375 142.15625 88.0 142.15625Q89.125 142.15625 89.796875 142.76562Q90.484375 143.375 90.484375 144.15625Q90.484375 144.67188 90.109375 145.21875Q89.75 145.76562 88.578125 146.48438Q89.78125 147.42188 90.171875 147.95312Q90.6875 148.65625 90.6875 149.42188Q90.6875 150.40625 89.9375 151.10938Q89.203125 151.79688 88.0 151.79688Q86.671875 151.79688 85.9375 150.96875Q85.34375 150.29688 85.34375 149.51562Q85.34375 148.89062 85.75 148.29688Q86.171875 147.6875 87.1875 146.95312ZM88.265625 146.21875Q89.078125 145.48438 89.296875 145.0625Q89.515625 144.625 89.515625 144.09375Q89.515625 143.375 89.109375 142.96875Q88.71875 142.5625 88.015625 142.5625Q87.3125 142.5625 86.875 142.96875Q86.4375 143.35938 86.4375 143.90625Q86.4375 144.26562 86.609375 144.625Q86.796875 144.96875 87.140625 145.29688L88.265625 146.21875ZM87.515625 147.21875Q86.9375 147.6875 86.65625 148.26562Q86.390625 148.82812 86.390625 149.48438Q86.390625 150.35938 86.875 150.89062Q87.359375 151.42188 88.109375 151.42188Q88.84375 151.42188 89.28125 151.0Q89.734375 150.57812 89.734375 149.98438Q89.734375 149.5 89.46875 149.10938Q88.984375 148.39062 87.515625 147.21875Z" fill-rule="nonzero"/><path fill="#000000" d="M75.140625 80.140625L77.390625 79.03125L77.625 79.03125L77.625 86.859375Q77.625 87.640625 77.6875 87.84375Q77.75 88.03125 77.953125 88.140625Q78.15625 88.234375 78.796875 88.25L78.796875 88.5L75.3125 88.5L75.3125 88.25Q75.96875 88.234375 76.15625 88.140625Q76.34375 88.03125 76.421875 87.875Q76.5 87.703125 76.5 86.859375L76.5 81.859375Q76.5 80.84375 76.421875 80.5625Q76.375 80.34375 76.25 80.25Q76.125 80.140625 75.953125 80.140625Q75.6875 80.140625 75.25 80.34375L75.140625 80.140625ZM82.25 87.171875Q82.578125 87.171875 82.796875 87.40625Q83.015625 87.625 83.015625 87.9375Q83.015625 88.25 82.78125 88.46875Q82.5625 88.6875 82.25 88.6875Q81.9375 88.6875 81.703125 88.46875Q81.484375 88.25 81.484375 87.9375Q81.484375 87.609375 81.703125 87.390625Q81.9375 87.171875 82.25 87.171875ZM85.0 83.921875Q85.0 82.328125 85.484375 81.1875Q85.96875 80.046875 86.75 79.484375Q87.375 79.03125 88.03125 79.03125Q89.09375 79.03125 89.9375 80.125Q91.0 81.46875 91.0 83.78125Q91.0 85.390625 90.53125 86.515625Q90.078125 87.640625 89.34375 88.15625Q88.625 88.671875 87.953125 88.671875Q86.640625 88.671875 85.75 87.09375Q85.0 85.78125 85.0 83.921875ZM86.34375 84.09375Q86.34375 86.0 86.8125 87.21875Q87.203125 88.234375 87.984375 88.234375Q88.34375 88.234375 88.734375 87.90625Q89.140625 87.5625 89.34375 86.796875Q89.65625 85.609375 89.65625 83.46875Q89.65625 81.890625 89.328125 80.828125Q89.09375 80.046875 88.703125 79.71875Q88.421875 79.484375 88.015625 79.484375Q87.5625 79.484375 87.1875 79.90625Q86.703125 80.46875 86.515625 81.6875Q86.34375 82.90625 86.34375 84.09375Z" fill-rule="nonzero"/><path fill="#000000" d="M111.74062 347.64062L113.99062 346.53125L114.225 346.53125L114.225 354.35938Q114.225 355.14062 114.2875 355.34375Q114.35 355.53125 114.55312 355.64062Q114.75625 355.73438 115.39687 355.75L115.39687 356.0L111.9125 356.0L111.9125 355.75Q112.56875 355.73438 112.75625 355.64062Q112.94375 355.53125 113.02187 355.375Q113.1 355.20312 113.1 354.35938L113.1 349.35938Q113.1 348.34375 113.02187 348.0625Q112.975 347.84375 112.85 347.75Q112.725 347.64062 112.55312 347.64062Q112.2875 347.64062 111.85 347.84375L111.74062 347.64062ZM117.6 351.42188Q117.6 349.82812 118.08437 348.6875Q118.56875 347.54688 119.35 346.98438Q119.975 346.53125 120.63125 346.53125Q121.69375 346.53125 122.5375 347.625Q123.6 348.96875 123.6 351.28125Q123.6 352.89062 123.13125 354.01562Q122.67812 355.14062 121.94375 355.65625Q121.225 356.17188 120.55312 356.17188Q119.24062 356.17188 118.35 354.59375Q117.6 353.28125 117.6 351.42188ZM118.94375 351.59375Q118.94375 353.5 119.4125 354.71875Q119.80312 355.73438 120.58437 355.73438Q120.94375 355.73438 121.33437 355.40625Q121.74062 355.0625 121.94375 354.29688Q122.25625 353.10938 122.25625 350.96875Q122.25625 349.39062 121.92812 348.32812Q121.69375 347.54688 121.30312 347.21875Q121.02187 346.98438 120.61562 346.98438Q120.1625 346.98438 119.7875 347.40625Q119.30312 347.96875 119.11562 349.1875Q118.94375 350.40625 118.94375 351.59375ZM133.61563 346.51562L126.86562 356.39062L126.25625 356.39062L133.00626 346.51562L133.61563 346.51562ZM126.58437 346.51562Q127.50625 346.51562 128.02188 347.28125Q128.5375 348.04688 128.5375 349.04688Q128.5375 350.23438 127.95937 350.89062Q127.38125 351.53125 126.56875 351.53125Q126.0375 351.53125 125.58437 351.23438Q125.13125 350.9375 124.86562 350.35938Q124.6 349.76562 124.6 349.04688Q124.6 348.32812 124.86562 347.71875Q125.14687 347.10938 125.61562 346.8125Q126.08437 346.51562 126.58437 346.51562ZM126.56875 346.90625Q126.225 346.90625 125.94375 347.3125Q125.67812 347.71875 125.67812 349.03125Q125.67812 349.98438 125.83437 350.48438Q125.94375 350.85938 126.19375 351.0625Q126.33437 351.1875 126.55312 351.1875Q126.88125 351.1875 127.11562 350.82812Q127.44375 350.3125 127.44375 349.07812Q127.44375 347.78125 127.11562 347.25Q126.89687 346.90625 126.56875 346.90625ZM133.30313 351.40625Q133.7875 351.40625 134.27188 351.71875Q134.75626 352.01562 135.00626 352.60938Q135.27188 353.1875 135.27188 353.89062Q135.27188 355.10938 134.69376 355.75Q134.11563 356.39062 133.31876 356.39062Q132.81876 356.39062 132.35 356.07812Q131.88126 355.76562 131.61563 355.20312Q131.35 354.625 131.35 353.89062Q131.35 353.17188 131.61563 352.57812Q131.88126 351.98438 132.35 351.70312Q132.81876 351.40625 133.30313 351.40625ZM133.30313 351.76562Q132.975 351.76562 132.74063 352.125Q132.42813 352.60938 132.42813 353.9375Q132.42813 355.17188 132.74063 355.65625Q132.975 356.0 133.30313 356.0Q133.61563 356.0 133.86563 355.625Q134.19376 355.125 134.19376 353.90625Q134.19376 352.625 133.86563 352.10938Q133.64688 351.76562 133.30313 351.76562Z" fill-rule="nonzero"/><path fill="#000000" d="M165.72188 354.21875L165.06563 356.0L159.59688 356.0L159.59688 355.75Q162.01875 353.54688 163.00313 352.15625Q163.9875 350.75 163.9875 349.59375Q163.9875 348.71875 163.44063 348.15625Q162.90938 347.57812 162.14375 347.57812Q161.47188 347.57812 160.925 347.98438Q160.37813 348.39062 160.12813 349.15625L159.8625 349.15625Q160.03438 347.89062 160.7375 347.21875Q161.45625 346.53125 162.51875 346.53125Q163.64375 346.53125 164.39375 347.26562Q165.15938 347.98438 165.15938 348.96875Q165.15938 349.67188 164.83125 350.375Q164.31563 351.48438 163.19063 352.71875Q161.4875 354.57812 161.05 354.96875L163.47188 354.96875Q164.22188 354.96875 164.51875 354.92188Q164.81563 354.85938 165.05 354.6875Q165.28438 354.51562 165.47188 354.21875L165.72188 354.21875ZM166.8 351.42188Q166.8 349.82812 167.28438 348.6875Q167.76875 347.54688 168.55 346.98438Q169.175 346.53125 169.83125 346.53125Q170.89375 346.53125 171.7375 347.625Q172.8 348.96875 172.8 351.28125Q172.8 352.89062 172.33125 354.01562Q171.87813 355.14062 171.14375 355.65625Q170.425 356.17188 169.75313 356.17188Q168.44063 356.17188 167.55 354.59375Q166.8 353.28125 166.8 351.42188ZM168.14375 351.59375Q168.14375 353.5 168.6125 354.71875Q169.00313 355.73438 169.78438 355.73438Q170.14375 355.73438 170.53438 355.40625Q170.94063 355.0625 171.14375 354.29688Q171.45625 353.10938 171.45625 350.96875Q171.45625 349.39062 171.12813 348.32812Q170.89375 347.54688 170.50313 347.21875Q170.22188 346.98438 169.81563 346.98438Q169.3625 346.98438 168.9875 347.40625Q168.50313 347.96875 168.31563 349.1875Q168.14375 350.40625 168.14375 351.59375ZM182.81563 346.51562L176.06563 356.39062L175.45625 356.39062L182.20625 346.51562L182.81563 346.51562ZM175.78438 346.51562Q176.70625 346.51562 177.22188 347.28125Q177.7375 348.04688 177.7375 349.04688Q177.7375 350.23438 177.15938 350.89062Q176.58125 351.53125 175.76875 351.53125Q175.2375 351.53125 174.78438 351.23438Q174.33125 350.9375 174.06563 350.35938Q173.8 349.76562 173.8 349.04688Q173.8 348.32812 174.06563 347.71875Q174.34688 347.10938 174.81563 346.8125Q175.28438 346.51562 175.78438 346.51562ZM175.76875 346.90625Q175.425 346.90625 175.14375 347.3125Q174.87813 347.71875 174.87813 349.03125Q174.87813 349.98438 175.03438 350.48438Q175.14375 350.85938 175.39375 351.0625Q175.53438 351.1875 175.75313 351.1875Q176.08125 351.1875 176.31563 350.82812Q176.64375 350.3125 176.64375 349.07812Q176.64375 347.78125 176.31563 347.25Q176.09688 346.90625 175.76875 346.90625ZM182.50313 351.40625Q182.9875 351.40625 183.47188 351.71875Q183.95625 352.01562 184.20625 352.60938Q184.47188 353.1875 184.47188 353.89062Q184.47188 355.10938 183.89375 355.75Q183.31563 356.39062 182.51875 356.39062Q182.01875 356.39062 181.55 356.07812Q181.08125 355.76562 180.81563 355.20312Q180.55 354.625 180.55 353.89062Q180.55 353.17188 180.81563 352.57812Q181.08125 351.98438 181.55 351.70312Q182.01875 351.40625 182.50313 351.40625ZM182.50313 351.76562Q182.175 351.76562 181.94063 352.125Q181.62813 352.60938 181.62813 353.9375Q181.62813 355.17188 181.94063 355.65625Q182.175 356.0 182.50313 356.0Q182.81563 356.0 183.06563 355.625Q183.39375 355.125 183.39375 353.90625Q183.39375 352.625 183.06563 352.10938Q182.84688 351.76562 182.50313 351.76562Z" fill-rule="nonzero"/><path fill="#000000" d="M209.21875 348.5Q209.60938 347.5625 210.20312 347.04688Q210.8125 346.53125 211.71875 346.53125Q212.82812 346.53125 213.42188 347.26562Q213.875 347.79688 213.875 348.42188Q213.875 349.4375 212.60938 350.51562Q213.46875 350.84375 213.90625 351.46875Q214.34375 352.09375 214.34375 352.9375Q214.34375 354.14062 213.57812 355.01562Q212.57812 356.17188 210.6875 356.17188Q209.75 356.17188 209.40625 355.9375Q209.0625 355.70312 209.0625 355.4375Q209.0625 355.23438 209.21875 355.09375Q209.39062 354.9375 209.60938 354.9375Q209.78125 354.9375 209.96875 354.98438Q210.07812 355.01562 210.48438 355.23438Q210.90625 355.45312 211.0625 355.5Q211.3125 355.5625 211.59375 355.5625Q212.29688 355.5625 212.8125 355.03125Q213.32812 354.48438 213.32812 353.75Q213.32812 353.20312 213.09375 352.70312Q212.90625 352.3125 212.70312 352.10938Q212.40625 351.84375 211.89062 351.625Q211.375 351.40625 210.84375 351.40625L210.625 351.40625L210.625 351.1875Q211.17188 351.125 211.70312 350.8125Q212.25 350.48438 212.5 350.03125Q212.75 349.57812 212.75 349.04688Q212.75 348.34375 212.29688 347.90625Q211.85938 347.46875 211.20312 347.46875Q210.14062 347.46875 209.4375 348.60938L209.21875 348.5ZM216.0 351.42188Q216.0 349.82812 216.48438 348.6875Q216.96875 347.54688 217.75 346.98438Q218.375 346.53125 219.03125 346.53125Q220.09375 346.53125 220.9375 347.625Q222.0 348.96875 222.0 351.28125Q222.0 352.89062 221.53125 354.01562Q221.07812 355.14062 220.34375 355.65625Q219.625 356.17188 218.95312 356.17188Q217.64062 356.17188 216.75 354.59375Q216.0 353.28125 216.0 351.42188ZM217.34375 351.59375Q217.34375 353.5 217.8125 354.71875Q218.20312 355.73438 218.98438 355.73438Q219.34375 355.73438 219.73438 355.40625Q220.14062 355.0625 220.34375 354.29688Q220.65625 353.10938 220.65625 350.96875Q220.65625 349.39062 220.32812 348.32812Q220.09375 347.54688 219.70312 347.21875Q219.42188 346.98438 219.01562 346.98438Q218.5625 346.98438 218.1875 347.40625Q217.70312 347.96875 217.51562 349.1875Q217.34375 350.40625 217.34375 351.59375ZM232.01562 346.51562L225.26562 356.39062L224.65625 356.39062L231.40625 346.51562L232.01562 346.51562ZM224.98438 346.51562Q225.90625 346.51562 226.42188 347.28125Q226.9375 348.04688 226.9375 349.04688Q226.9375 350.23438 226.35938 350.89062Q225.78125 351.53125 224.96875 351.53125Q224.4375 351.53125 223.98438 351.23438Q223.53125 350.9375 223.26562 350.35938Q223.0 349.76562 223.0 349.04688Q223.0 348.32812 223.26562 347.71875Q223.54688 347.10938 224.01562 346.8125Q224.48438 346.51562 224.98438 346.51562ZM224.96875 346.90625Q224.625 346.90625 224.34375 347.3125Q224.07812 347.71875 224.07812 349.03125Q224.07812 349.98438 224.23438 350.48438Q224.34375 350.85938 224.59375 351.0625Q224.73438 351.1875 224.95312 351.1875Q225.28125 351.1875 225.51562 350.82812Q225.84375 350.3125 225.84375 349.07812Q225.84375 347.78125 225.51562 347.25Q225.29688 346.90625 224.96875 346.90625ZM231.70312 351.40625Q232.1875 351.40625 232.67188 351.71875Q233.15625 352.01562 233.40625 352.60938Q233.67188 353.1875 233.67188 353.89062Q233.67188 355.10938 233.09375 355.75Q232.51562 356.39062 231.71875 356.39062Q231.21875 356.39062 230.75 356.07812Q230.28125 355.76562 230.01562 355.20312Q229.75 354.625 229.75 353.89062Q229.75 353.17188 230.01562 352.57812Q230.28125 351.98438 230.75 351.70312Q231.21875 351.40625 231.70312 351.40625ZM231.70312 351.76562Q231.375 351.76562 231.14062 352.125Q230.82812 352.60938 230.82812 353.9375Q230.82812 355.17188 231.14062 355.65625Q231.375 356.0 231.70312 356.0Q232.01562 356.0 232.26562 355.625Q232.59375 355.125 232.59375 353.90625Q232.59375 352.625 232.26562 352.10938Q232.04688 351.76562 231.70312 351.76562Z" fill-rule="nonzero"/><path fill="#000000" d="M264.21564 352.57812L264.21564 353.54688L262.96564 353.54688L262.96564 356.0L261.84064 356.0L261.84064 353.54688L257.91876 353.54688L257.91876 352.67188L262.21564 346.53125L262.96564 346.53125L262.96564 352.57812L264.21564 352.57812ZM261.84064 352.57812L261.84064 347.98438L258.59064 352.57812L261.84064 352.57812ZM265.2 351.42188Q265.2 349.82812 265.6844 348.6875Q266.16876 347.54688 266.95 346.98438Q267.575 346.53125 268.23126 346.53125Q269.29376 346.53125 270.1375 347.625Q271.2 348.96875 271.2 351.28125Q271.2 352.89062 270.73126 354.01562Q270.27814 355.14062 269.54376 355.65625Q268.825 356.17188 268.15314 356.17188Q266.84064 356.17188 265.95 354.59375Q265.2 353.28125 265.2 351.42188ZM266.54376 351.59375Q266.54376 353.5 267.0125 354.71875Q267.40314 355.73438 268.1844 355.73438Q268.54376 355.73438 268.9344 355.40625Q269.34064 355.0625 269.54376 354.29688Q269.85626 353.10938 269.85626 350.96875Q269.85626 349.39062 269.52814 348.32812Q269.29376 347.54688 268.90314 347.21875Q268.6219 346.98438 268.21564 346.98438Q267.7625 346.98438 267.3875 347.40625Q266.90314 347.96875 266.71564 349.1875Q266.54376 350.40625 266.54376 351.59375ZM281.21564 346.51562L274.46564 356.39062L273.85626 356.39062L280.60626 346.51562L281.21564 346.51562ZM274.1844 346.51562Q275.10626 346.51562 275.6219 347.28125Q276.1375 348.04688 276.1375 349.04688Q276.1375 350.23438 275.5594 350.89062Q274.98126 351.53125 274.16876 351.53125Q273.6375 351.53125 273.1844 351.23438Q272.73126 350.9375 272.46564 350.35938Q272.2 349.76562 272.2 349.04688Q272.2 348.32812 272.46564 347.71875Q272.7469 347.10938 273.21564 346.8125Q273.6844 346.51562 274.1844 346.51562ZM274.16876 346.90625Q273.825 346.90625 273.54376 347.3125Q273.27814 347.71875 273.27814 349.03125Q273.27814 349.98438 273.4344 350.48438Q273.54376 350.85938 273.79376 351.0625Q273.9344 351.1875 274.15314 351.1875Q274.48126 351.1875 274.71564 350.82812Q275.04376 350.3125 275.04376 349.07812Q275.04376 347.78125 274.71564 347.25Q274.4969 346.90625 274.16876 346.90625ZM280.90314 351.40625Q281.3875 351.40625 281.8719 351.71875Q282.35626 352.01562 282.60626 352.60938Q282.8719 353.1875 282.8719 353.89062Q282.8719 355.10938 282.29376 355.75Q281.71564 356.39062 280.91876 356.39062Q280.41876 356.39062 279.95 356.07812Q279.48126 355.76562 279.21564 355.20312Q278.95 354.625 278.95 353.89062Q278.95 353.17188 279.21564 352.57812Q279.48126 351.98438 279.95 351.70312Q280.41876 351.40625 280.90314 351.40625ZM280.90314 351.76562Q280.575 351.76562 280.34064 352.125Q280.02814 352.60938 280.02814 353.9375Q280.02814 355.17188 280.34064 355.65625Q280.575 356.0 280.90314 356.0Q281.21564 356.0 281.46564 355.625Q281.79376 355.125 281.79376 353.90625Q281.79376 352.625 281.46564 352.10938Q281.2469 351.76562 280.90314 351.76562Z" fill-rule="nonzero"/><path fill="#000000" d="M312.97812 346.73438L312.44687 347.89062L309.65 347.89062L309.04062 349.14062Q310.85312 349.40625 311.91562 350.48438Q312.82187 351.40625 312.82187 352.67188Q312.82187 353.40625 312.525 354.03125Q312.22812 354.64062 311.775 355.07812Q311.3375 355.51562 310.775 355.78125Q309.99374 356.17188 309.16562 356.17188Q308.32187 356.17188 307.94687 355.89062Q307.57187 355.59375 307.57187 355.25Q307.57187 355.0625 307.72812 354.92188Q307.88437 354.76562 308.11874 354.76562Q308.30624 354.76562 308.43124 354.82812Q308.57187 354.875 308.88437 355.10938Q309.4 355.45312 309.93124 355.45312Q310.72812 355.45312 311.32187 354.85938Q311.93124 354.25 311.93124 353.375Q311.93124 352.54688 311.38437 351.8125Q310.85312 351.07812 309.91562 350.6875Q309.16562 350.375 307.88437 350.32812L309.65 346.73438L312.97812 346.73438ZM314.4 351.42188Q314.4 349.82812 314.88437 348.6875Q315.36874 347.54688 316.15 346.98438Q316.775 346.53125 317.43124 346.53125Q318.49374 346.53125 319.3375 347.625Q320.4 348.96875 320.4 351.28125Q320.4 352.89062 319.93124 354.01562Q319.47812 355.14062 318.74374 355.65625Q318.025 356.17188 317.35312 356.17188Q316.04062 356.17188 315.15 354.59375Q314.4 353.28125 314.4 351.42188ZM315.74374 351.59375Q315.74374 353.5 316.2125 354.71875Q316.60312 355.73438 317.38437 355.73438Q317.74374 355.73438 318.13437 355.40625Q318.54062 355.0625 318.74374 354.29688Q319.05624 353.10938 319.05624 350.96875Q319.05624 349.39062 318.72812 348.32812Q318.49374 347.54688 318.10312 347.21875Q317.82187 346.98438 317.41562 346.98438Q316.9625 346.98438 316.5875 347.40625Q316.10312 347.96875 315.91562 349.1875Q315.74374 350.40625 315.74374 351.59375ZM330.41562 346.51562L323.66562 356.39062L323.05624 356.39062L329.80624 346.51562L330.41562 346.51562ZM323.38437 346.51562Q324.30624 346.51562 324.82187 347.28125Q325.3375 348.04688 325.3375 349.04688Q325.3375 350.23438 324.75937 350.89062Q324.18124 351.53125 323.36874 351.53125Q322.8375 351.53125 322.38437 351.23438Q321.93124 350.9375 321.66562 350.35938Q321.4 349.76562 321.4 349.04688Q321.4 348.32812 321.66562 347.71875Q321.94687 347.10938 322.41562 346.8125Q322.88437 346.51562 323.38437 346.51562ZM323.36874 346.90625Q323.025 346.90625 322.74374 347.3125Q322.47812 347.71875 322.47812 349.03125Q322.47812 349.98438 322.63437 350.48438Q322.74374 350.85938 322.99374 351.0625Q323.13437 351.1875 323.35312 351.1875Q323.68124 351.1875 323.91562 350.82812Q324.24374 350.3125 324.24374 349.07812Q324.24374 347.78125 323.91562 347.25Q323.69687 346.90625 323.36874 346.90625ZM330.10312 351.40625Q330.5875 351.40625 331.07187 351.71875Q331.55624 352.01562 331.80624 352.60938Q332.07187 353.1875 332.07187 353.89062Q332.07187 355.10938 331.49374 355.75Q330.91562 356.39062 330.11874 356.39062Q329.61874 356.39062 329.15 356.07812Q328.68124 355.76562 328.41562 355.20312Q328.15 354.625 328.15 353.89062Q328.15 353.17188 328.41562 352.57812Q328.68124 351.98438 329.15 351.70312Q329.61874 351.40625 330.10312 351.40625ZM330.10312 351.76562Q329.775 351.76562 329.54062 352.125Q329.22812 352.60938 329.22812 353.9375Q329.22812 355.17188 329.54062 355.65625Q329.775 356.0 330.10312 356.0Q330.41562 356.0 330.66562 355.625Q330.99374 355.125 330.99374 353.90625Q330.99374 352.625 330.66562 352.10938Q330.44687 351.76562 330.10312 351.76562Z" fill-rule="nonzero"/><path fill="#000000" d="M362.38126 346.53125L362.38126 346.79688Q361.475 346.875 360.89688 347.15625Q360.33438 347.42188 359.77188 347.98438Q359.225 348.53125 358.85 349.21875Q358.49063 349.89062 358.24063 350.82812Q359.225 350.14062 360.20938 350.14062Q361.1625 350.14062 361.85 350.90625Q362.55313 351.67188 362.55313 352.875Q362.55313 354.04688 361.85 355.0Q361.00626 356.17188 359.61563 356.17188Q358.6625 356.17188 358.00626 355.53125Q356.70938 354.3125 356.70938 352.35938Q356.70938 351.125 357.19376 350.0Q357.69376 348.875 358.61563 348.01562Q359.55313 347.14062 360.39688 346.84375Q361.24063 346.53125 361.975 346.53125L362.38126 346.53125ZM358.13126 351.32812Q358.00626 352.25 358.00626 352.8125Q358.00626 353.46875 358.24063 354.25Q358.49063 355.01562 358.95938 355.45312Q359.31876 355.78125 359.81876 355.78125Q360.4125 355.78125 360.88126 355.21875Q361.35 354.65625 361.35 353.625Q361.35 352.45312 360.88126 351.60938Q360.4125 350.75 359.55313 350.75Q359.30313 350.75 359.00626 350.85938Q358.70938 350.96875 358.13126 351.32812ZM363.6 351.42188Q363.6 349.82812 364.08438 348.6875Q364.56876 347.54688 365.35 346.98438Q365.975 346.53125 366.63126 346.53125Q367.69376 346.53125 368.5375 347.625Q369.6 348.96875 369.6 351.28125Q369.6 352.89062 369.13126 354.01562Q368.67813 355.14062 367.94376 355.65625Q367.225 356.17188 366.55313 356.17188Q365.24063 356.17188 364.35 354.59375Q363.6 353.28125 363.6 351.42188ZM364.94376 351.59375Q364.94376 353.5 365.4125 354.71875Q365.80313 355.73438 366.58438 355.73438Q366.94376 355.73438 367.33438 355.40625Q367.74063 355.0625 367.94376 354.29688Q368.25626 353.10938 368.25626 350.96875Q368.25626 349.39062 367.92813 348.32812Q367.69376 347.54688 367.30313 347.21875Q367.02188 346.98438 366.61563 346.98438Q366.1625 346.98438 365.7875 347.40625Q365.30313 347.96875 365.11563 349.1875Q364.94376 350.40625 364.94376 351.59375ZM379.61563 346.51562L372.86563 356.39062L372.25626 356.39062L379.00626 346.51562L379.61563 346.51562ZM372.58438 346.51562Q373.50626 346.51562 374.02188 347.28125Q374.5375 348.04688 374.5375 349.04688Q374.5375 350.23438 373.95938 350.89062Q373.38126 351.53125 372.56876 351.53125Q372.0375 351.53125 371.58438 351.23438Q371.13126 350.9375 370.86563 350.35938Q370.6 349.76562 370.6 349.04688Q370.6 348.32812 370.86563 347.71875Q371.14688 347.10938 371.61563 346.8125Q372.08438 346.51562 372.58438 346.51562ZM372.56876 346.90625Q372.225 346.90625 371.94376 347.3125Q371.67813 347.71875 371.67813 349.03125Q371.67813 349.98438 371.83438 350.48438Q371.94376 350.85938 372.19376 351.0625Q372.33438 351.1875 372.55313 351.1875Q372.88126 351.1875 373.11563 350.82812Q373.44376 350.3125 373.44376 349.07812Q373.44376 347.78125 373.11563 347.25Q372.89688 346.90625 372.56876 346.90625ZM379.30313 351.40625Q379.7875 351.40625 380.27188 351.71875Q380.75626 352.01562 381.00626 352.60938Q381.27188 353.1875 381.27188 353.89062Q381.27188 355.10938 380.69376 355.75Q380.11563 356.39062 379.31876 356.39062Q378.81876 356.39062 378.35 356.07812Q377.88126 355.76562 377.61563 355.20312Q377.35 354.625 377.35 353.89062Q377.35 353.17188 377.61563 352.57812Q377.88126 351.98438 378.35 351.70312Q378.81876 351.40625 379.30313 351.40625ZM379.30313 351.76562Q378.975 351.76562 378.74063 352.125Q378.42813 352.60938 378.42813 353.9375Q378.42813 355.17188 378.74063 355.65625Q378.975 356.0 379.30313 356.0Q379.61563 356.0 379.86563 355.625Q380.19376 355.125 380.19376 353.90625Q380.19376 352.625 379.86563 352.10938Q379.64688 351.76562 379.30313 351.76562Z" fill-rule="nonzero"/><path fill="#000000" d="M406.70624 346.73438L411.675 346.73438L411.675 346.98438L408.58124 356.1875L407.8156 356.1875L410.59686 347.84375L408.03436 347.84375Q407.26874 347.84375 406.9406 348.03125Q406.3625 348.34375 406.01874 349.0L405.8156 348.92188L406.70624 346.73438ZM412.8 351.42188Q412.8 349.82812 413.28436 348.6875Q413.76874 347.54688 414.55 346.98438Q415.175 346.53125 415.83124 346.53125Q416.89374 346.53125 417.7375 347.625Q418.8 348.96875 418.8 351.28125Q418.8 352.89062 418.33124 354.01562Q417.8781 355.14062 417.14374 355.65625Q416.425 356.17188 415.7531 356.17188Q414.4406 356.17188 413.55 354.59375Q412.8 353.28125 412.8 351.42188ZM414.14374 351.59375Q414.14374 353.5 414.6125 354.71875Q415.0031 355.73438 415.78436 355.73438Q416.14374 355.73438 416.53436 355.40625Q416.9406 355.0625 417.14374 354.29688Q417.45624 353.10938 417.45624 350.96875Q417.45624 349.39062 417.1281 348.32812Q416.89374 347.54688 416.5031 347.21875Q416.22186 346.98438 415.8156 346.98438Q415.3625 346.98438 414.9875 347.40625Q414.5031 347.96875 414.3156 349.1875Q414.14374 350.40625 414.14374 351.59375ZM428.8156 346.51562L422.0656 356.39062L421.45624 356.39062L428.20624 346.51562L428.8156 346.51562ZM421.78436 346.51562Q422.70624 346.51562 423.22186 347.28125Q423.7375 348.04688 423.7375 349.04688Q423.7375 350.23438 423.15936 350.89062Q422.58124 351.53125 421.76874 351.53125Q421.2375 351.53125 420.78436 351.23438Q420.33124 350.9375 420.0656 350.35938Q419.8 349.76562 419.8 349.04688Q419.8 348.32812 420.0656 347.71875Q420.34686 347.10938 420.8156 346.8125Q421.28436 346.51562 421.78436 346.51562ZM421.76874 346.90625Q421.425 346.90625 421.14374 347.3125Q420.8781 347.71875 420.8781 349.03125Q420.8781 349.98438 421.03436 350.48438Q421.14374 350.85938 421.39374 351.0625Q421.53436 351.1875 421.7531 351.1875Q422.08124 351.1875 422.3156 350.82812Q422.64374 350.3125 422.64374 349.07812Q422.64374 347.78125 422.3156 347.25Q422.09686 346.90625 421.76874 346.90625ZM428.5031 351.40625Q428.9875 351.40625 429.47186 351.71875Q429.95624 352.01562 430.20624 352.60938Q430.47186 353.1875 430.47186 353.89062Q430.47186 355.10938 429.89374 355.75Q429.3156 356.39062 428.51874 356.39062Q428.01874 356.39062 427.55 356.07812Q427.08124 355.76562 426.8156 355.20312Q426.55 354.625 426.55 353.89062Q426.55 353.17188 426.8156 352.57812Q427.08124 351.98438 427.55 351.70312Q428.01874 351.40625 428.5031 351.40625ZM428.5031 351.76562Q428.175 351.76562 427.9406 352.125Q427.6281 352.60938 427.6281 353.9375Q427.6281 355.17188 427.9406 355.65625Q428.175 356.0 428.5031 356.0Q428.8156 356.0 429.0656 355.625Q429.39374 355.125 429.39374 353.90625Q429.39374 352.625 429.0656 352.10938Q428.84686 351.76562 428.5031 351.76562Z" fill-rule="nonzero"/><path fill="#000000" d="M457.1875 351.32812Q456.09375 350.42188 455.76562 349.875Q455.45312 349.32812 455.45312 348.75Q455.45312 347.84375 456.14062 347.1875Q456.84375 346.53125 458.0 346.53125Q459.125 346.53125 459.79688 347.14062Q460.48438 347.75 460.48438 348.53125Q460.48438 349.04688 460.10938 349.59375Q459.75 350.14062 458.57812 350.85938Q459.78125 351.79688 460.17188 352.32812Q460.6875 353.03125 460.6875 353.79688Q460.6875 354.78125 459.9375 355.48438Q459.20312 356.17188 458.0 356.17188Q456.67188 356.17188 455.9375 355.34375Q455.34375 354.67188 455.34375 353.89062Q455.34375 353.26562 455.75 352.67188Q456.17188 352.0625 457.1875 351.32812ZM458.26562 350.59375Q459.07812 349.85938 459.29688 349.4375Q459.51562 349.0 459.51562 348.46875Q459.51562 347.75 459.10938 347.34375Q458.71875 346.9375 458.01562 346.9375Q457.3125 346.9375 456.875 347.34375Q456.4375 347.73438 456.4375 348.28125Q456.4375 348.64062 456.60938 349.0Q456.79688 349.34375 457.14062 349.67188L458.26562 350.59375ZM457.51562 351.59375Q456.9375 352.0625 456.65625 352.64062Q456.39062 353.20312 456.39062 353.85938Q456.39062 354.73438 456.875 355.26562Q457.35938 355.79688 458.10938 355.79688Q458.84375 355.79688 459.28125 355.375Q459.73438 354.95312 459.73438 354.35938Q459.73438 353.875 459.46875 353.48438Q458.98438 352.76562 457.51562 351.59375ZM462.0 351.42188Q462.0 349.82812 462.48438 348.6875Q462.96875 347.54688 463.75 346.98438Q464.375 346.53125 465.03125 346.53125Q466.09375 346.53125 466.9375 347.625Q468.0 348.96875 468.0 351.28125Q468.0 352.89062 467.53125 354.01562Q467.07812 355.14062 466.34375 355.65625Q465.625 356.17188 464.95312 356.17188Q463.64062 356.17188 462.75 354.59375Q462.0 353.28125 462.0 351.42188ZM463.34375 351.59375Q463.34375 353.5 463.8125 354.71875Q464.20312 355.73438 464.98438 355.73438Q465.34375 355.73438 465.73438 355.40625Q466.14062 355.0625 466.34375 354.29688Q466.65625 353.10938 466.65625 350.96875Q466.65625 349.39062 466.32812 348.32812Q466.09375 347.54688 465.70312 347.21875Q465.42188 346.98438 465.01562 346.98438Q464.5625 346.98438 464.1875 347.40625Q463.70312 347.96875 463.51562 349.1875Q463.34375 350.40625 463.34375 351.59375ZM478.01562 346.51562L471.26562 356.39062L470.65625 356.39062L477.40625 346.51562L478.01562 346.51562ZM470.98438 346.51562Q471.90625 346.51562 472.42188 347.28125Q472.9375 348.04688 472.9375 349.04688Q472.9375 350.23438 472.35938 350.89062Q471.78125 351.53125 470.96875 351.53125Q470.4375 351.53125 469.98438 351.23438Q469.53125 350.9375 469.26562 350.35938Q469.0 349.76562 469.0 349.04688Q469.0 348.32812 469.26562 347.71875Q469.54688 347.10938 470.01562 346.8125Q470.48438 346.51562 470.98438 346.51562ZM470.96875 346.90625Q470.625 346.90625 470.34375 347.3125Q470.07812 347.71875 470.07812 349.03125Q470.07812 349.98438 470.23438 350.48438Q470.34375 350.85938 470.59375 351.0625Q470.73438 351.1875 470.95312 351.1875Q471.28125 351.1875 471.51562 350.82812Q471.84375 350.3125 471.84375 349.07812Q471.84375 347.78125 471.51562 347.25Q471.29688 346.90625 470.96875 346.90625ZM477.70312 351.40625Q478.1875 351.40625 478.67188 351.71875Q479.15625 352.01562 479.40625 352.60938Q479.67188 353.1875 479.67188 353.89062Q479.67188 355.10938 479.09375 355.75Q478.51562 356.39062 477.71875 356.39062Q477.21875 356.39062 476.75 356.07812Q476.28125 355.76562 476.01562 355.20312Q475.75 354.625 475.75 353.89062Q475.75 353.17188 476.01562 352.57812Q476.28125 351.98438 476.75 351.70312Q477.21875 351.40625 477.70312 351.40625ZM477.70312 351.76562Q477.375 351.76562 477.14062 352.125Q476.82812 352.60938 476.82812 353.9375Q476.82812 355.17188 477.14062 355.65625Q477.375 356.0 477.70312 356.0Q478.01562 356.0 478.26562 355.625Q478.59375 355.125 478.59375 353.90625Q478.59375 352.625 478.26562 352.10938Q478.04688 351.76562 477.70312 351.76562Z" fill-rule="nonzero"/><path fill="#000000" d="M504.4344 356.1875L504.4344 355.9375Q505.325 355.92188 506.09064 355.53125Q506.85626 355.125 507.575 354.125Q508.29376 353.125 508.575 351.9375Q507.4969 352.625 506.6219 352.625Q505.65314 352.625 504.95 351.875Q504.2469 351.10938 504.2469 349.85938Q504.2469 348.64062 504.95 347.6875Q505.79376 346.53125 507.15314 346.53125Q508.29376 346.53125 509.10626 347.48438Q510.10626 348.65625 510.10626 350.35938Q510.10626 351.90625 509.34064 353.25Q508.575 354.57812 507.23126 355.46875Q506.1219 356.1875 504.825 356.1875L504.4344 356.1875ZM508.6844 351.42188Q508.79376 350.53125 508.79376 350.0Q508.79376 349.34375 508.575 348.57812Q508.35626 347.79688 507.9344 347.39062Q507.52814 346.98438 506.9969 346.98438Q506.3875 346.98438 505.91876 347.53125Q505.46564 348.07812 505.46564 349.15625Q505.46564 350.59375 506.075 351.40625Q506.52814 352.0 507.16876 352.0Q507.48126 352.0 507.91876 351.85938Q508.35626 351.70312 508.6844 351.42188ZM511.2 351.42188Q511.2 349.82812 511.6844 348.6875Q512.16876 347.54688 512.95 346.98438Q513.575 346.53125 514.23126 346.53125Q515.29376 346.53125 516.1375 347.625Q517.2 348.96875 517.2 351.28125Q517.2 352.89062 516.73126 354.01562Q516.27814 355.14062 515.54376 355.65625Q514.825 356.17188 514.15314 356.17188Q512.84064 356.17188 511.95 354.59375Q511.2 353.28125 511.2 351.42188ZM512.54376 351.59375Q512.54376 353.5 513.0125 354.71875Q513.40314 355.73438 514.1844 355.73438Q514.54376 355.73438 514.9344 355.40625Q515.34064 355.0625 515.54376 354.29688Q515.85626 353.10938 515.85626 350.96875Q515.85626 349.39062 515.52814 348.32812Q515.29376 347.54688 514.90314 347.21875Q514.6219 346.98438 514.21564 346.98438Q513.7625 346.98438 513.3875 347.40625Q512.90314 347.96875 512.71564 349.1875Q512.54376 350.40625 512.54376 351.59375ZM527.21564 346.51562L520.46564 356.39062L519.85626 356.39062L526.60626 346.51562L527.21564 346.51562ZM520.1844 346.51562Q521.10626 346.51562 521.6219 347.28125Q522.1375 348.04688 522.1375 349.04688Q522.1375 350.23438 521.5594 350.89062Q520.98126 351.53125 520.16876 351.53125Q519.6375 351.53125 519.1844 351.23438Q518.73126 350.9375 518.46564 350.35938Q518.2 349.76562 518.2 349.04688Q518.2 348.32812 518.46564 347.71875Q518.7469 347.10938 519.21564 346.8125Q519.6844 346.51562 520.1844 346.51562ZM520.16876 346.90625Q519.825 346.90625 519.54376 347.3125Q519.27814 347.71875 519.27814 349.03125Q519.27814 349.98438 519.4344 350.48438Q519.54376 350.85938 519.79376 351.0625Q519.9344 351.1875 520.15314 351.1875Q520.48126 351.1875 520.71564 350.82812Q521.04376 350.3125 521.04376 349.07812Q521.04376 347.78125 520.71564 347.25Q520.4969 346.90625 520.16876 346.90625ZM526.90314 351.40625Q527.3875 351.40625 527.8719 351.71875Q528.35626 352.01562 528.60626 352.60938Q528.8719 353.1875 528.8719 353.89062Q528.8719 355.10938 528.29376 355.75Q527.71564 356.39062 526.91876 356.39062Q526.41876 356.39062 525.95 356.07812Q525.48126 355.76562 525.21564 355.20312Q524.95 354.625 524.95 353.89062Q524.95 353.17188 525.21564 352.57812Q525.48126 351.98438 525.95 351.70312Q526.41876 351.40625 526.90314 351.40625ZM526.90314 351.76562Q526.575 351.76562 526.34064 352.125Q526.02814 352.60938 526.02814 353.9375Q526.02814 355.17188 526.34064 355.65625Q526.575 356.0 526.90314 356.0Q527.21564 356.0 527.46564 355.625Q527.79376 355.125 527.79376 353.90625Q527.79376 352.625 527.46564 352.10938Q527.2469 351.76562 526.90314 351.76562Z" fill-rule="nonzero"/><path fill="#000000" d="M551.04065 347.64062L553.29065 346.53125L553.525 346.53125L553.525 354.35938Q553.525 355.14062 553.5875 355.34375Q553.65 355.53125 553.85315 355.64062Q554.0563 355.73438 554.6969 355.75L554.6969 356.0L551.2125 356.0L551.2125 355.75Q551.8688 355.73438 552.0563 355.64062Q552.2438 355.53125 552.3219 355.375Q552.4 355.20312 552.4 354.35938L552.4 349.35938Q552.4 348.34375 552.3219 348.0625Q552.275 347.84375 552.15 347.75Q552.025 347.64062 551.85315 347.64062Q551.5875 347.64062 551.15 347.84375L551.04065 347.64062ZM556.9 351.42188Q556.9 349.82812 557.3844 348.6875Q557.8688 347.54688 558.65 346.98438Q559.275 346.53125 559.9313 346.53125Q560.9938 346.53125 561.8375 347.625Q562.9 348.96875 562.9 351.28125Q562.9 352.89062 562.4313 354.01562Q561.97815 355.14062 561.2438 355.65625Q560.525 356.17188 559.85315 356.17188Q558.54065 356.17188 557.65 354.59375Q556.9 353.28125 556.9 351.42188ZM558.2438 351.59375Q558.2438 353.5 558.7125 354.71875Q559.10315 355.73438 559.8844 355.73438Q560.2438 355.73438 560.6344 355.40625Q561.04065 355.0625 561.2438 354.29688Q561.5563 353.10938 561.5563 350.96875Q561.5563 349.39062 561.22815 348.32812Q560.9938 347.54688 560.60315 347.21875Q560.3219 346.98438 559.91565 346.98438Q559.4625 346.98438 559.0875 347.40625Q558.60315 347.96875 558.41565 349.1875Q558.2438 350.40625 558.2438 351.59375ZM563.9 351.42188Q563.9 349.82812 564.3844 348.6875Q564.8688 347.54688 565.65 346.98438Q566.275 346.53125 566.9313 346.53125Q567.9938 346.53125 568.8375 347.625Q569.9 348.96875 569.9 351.28125Q569.9 352.89062 569.4313 354.01562Q568.97815 355.14062 568.2438 355.65625Q567.525 356.17188 566.85315 356.17188Q565.54065 356.17188 564.65 354.59375Q563.9 353.28125 563.9 351.42188ZM565.2438 351.59375Q565.2438 353.5 565.7125 354.71875Q566.10315 355.73438 566.8844 355.73438Q567.2438 355.73438 567.6344 355.40625Q568.04065 355.0625 568.2438 354.29688Q568.5563 353.10938 568.5563 350.96875Q568.5563 349.39062 568.22815 348.32812Q567.9938 347.54688 567.60315 347.21875Q567.3219 346.98438 566.91565 346.98438Q566.4625 346.98438 566.0875 347.40625Q565.60315 347.96875 565.41565 349.1875Q565.2438 350.40625 565.2438 351.59375ZM579.91565 346.51562L573.16565 356.39062L572.5563 356.39062L579.3063 346.51562L579.91565 346.51562ZM572.8844 346.51562Q573.8063 346.51562 574.3219 347.28125Q574.8375 348.04688 574.8375 349.04688Q574.8375 350.23438 574.2594 350.89062Q573.6813 351.53125 572.8688 351.53125Q572.3375 351.53125 571.8844 351.23438Q571.4313 350.9375 571.16565 350.35938Q570.9 349.76562 570.9 349.04688Q570.9 348.32812 571.16565 347.71875Q571.4469 347.10938 571.91565 346.8125Q572.3844 346.51562 572.8844 346.51562ZM572.8688 346.90625Q572.525 346.90625 572.2438 347.3125Q571.97815 347.71875 571.97815 349.03125Q571.97815 349.98438 572.1344 350.48438Q572.2438 350.85938 572.4938 351.0625Q572.6344 351.1875 572.85315 351.1875Q573.1813 351.1875 573.41565 350.82812Q573.7438 350.3125 573.7438 349.07812Q573.7438 347.78125 573.41565 347.25Q573.1969 346.90625 572.8688 346.90625ZM579.60315 351.40625Q580.0875 351.40625 580.5719 351.71875Q581.0563 352.01562 581.3063 352.60938Q581.5719 353.1875 581.5719 353.89062Q581.5719 355.10938 580.9938 355.75Q580.41565 356.39062 579.6188 356.39062Q579.1188 356.39062 578.65 356.07812Q578.1813 355.76562 577.91565 355.20312Q577.65 354.625 577.65 353.89062Q577.65 353.17188 577.91565 352.57812Q578.1813 351.98438 578.65 351.70312Q579.1188 351.40625 579.60315 351.40625ZM579.60315 351.76562Q579.275 351.76562 579.04065 352.125Q578.72815 352.60938 578.72815 353.9375Q578.72815 355.17188 579.04065 355.65625Q579.275 356.0 579.60315 356.0Q579.91565 356.0 580.16565 355.625Q580.4938 355.125 580.4938 353.90625Q580.4938 352.625 580.16565 352.10938Q579.9469 351.76562 579.60315 351.76562Z" fill-rule="nonzero"/></svg>